<?xml version="1.0" encoding="UTF-8" standalone="no"?>
<!-- Generator: Adobe Illustrator 26.0.2, SVG Export Plug-In . SVG Version: 6.00 Build 0)  -->

<svg
   xmlns:dc="http://purl.org/dc/elements/1.1/"
   xmlns:cc="http://creativecommons.org/ns#"
   xmlns:rdf="http://www.w3.org/1999/02/22-rdf-syntax-ns#"
   xmlns:svg="http://www.w3.org/2000/svg"
   xmlns="http://www.w3.org/2000/svg"
   xmlns:sodipodi="http://sodipodi.sourceforge.net/DTD/sodipodi-0.dtd"
   xmlns:inkscape="http://www.inkscape.org/namespaces/inkscape"
   version="1.1"
   id="Layer_1"
   x="0px"
   y="0px"
   viewBox="0 0 1712.99 340.82999"
   xml:space="preserve"
   sodipodi:docname="logo-globalworth.svg"
   width="1712.99"
   height="340.82999"
   inkscape:version="0.92.3 (2405546, 2018-03-11)"><metadata
   id="metadata51"><rdf:RDF><cc:Work
       rdf:about=""><dc:format>image/svg+xml</dc:format><dc:type
         rdf:resource="http://purl.org/dc/dcmitype/StillImage" /><dc:title></dc:title></cc:Work></rdf:RDF></metadata><defs
   id="defs49" /><sodipodi:namedview
   pagecolor="#ffffff"
   bordercolor="#666666"
   borderopacity="1"
   objecttolerance="10"
   gridtolerance="10"
   guidetolerance="10"
   inkscape:pageopacity="0"
   inkscape:pageshadow="2"
   inkscape:window-width="1739"
   inkscape:window-height="873"
   id="namedview47"
   showgrid="false"
   fit-margin-top="0"
   fit-margin-left="0"
   fit-margin-right="0"
   fit-margin-bottom="0"
   inkscape:zoom="0.35625"
   inkscape:cx="674.58199"
   inkscape:cy="141.20379"
   inkscape:window-x="106"
   inkscape:window-y="55"
   inkscape:window-maximized="0"
   inkscape:current-layer="Layer_1" />
<style
   type="text/css"
   id="style2">
	.st0{fill:#222222;}
	.st1{fill:#C72036;}
</style>
<polygon
   class="st0"
   points="380.7,590.2 288.83,590.2 288.83,622.48 374.9,622.48 374.9,650.61 288.83,650.61 288.83,709.79 248.69,709.79 248.69,562.06 380.7,562.06 "
   id="polygon4"
   style="fill:#222222"
   transform="translate(-103.51,-370.55)" />
<path
   class="st0"
   d="m 370.53,184.81 c 79.45,0 91.87,47.18 91.87,78 0,30.83 -12.41,78 -91.87,78 -79.46,0 -91.87,-47.17 -91.87,-78 0,-30.82 12.41,-78 91.87,-78 m 0,127.87 c 36.41,0 49.24,-26.9 49.24,-49.86 0,-22.97 -12.83,-49.86 -49.24,-49.86 -36.41,0 -49.24,26.9 -49.24,49.86 -0.01,22.97 12.82,49.86 49.24,49.86"
   id="path6"
   inkscape:connector-curvature="0"
   style="fill:#222222" />
<path
   class="st0"
   d="m 474.64,191.51 h 40.14 v 82.28 c 0,14.48 0.41,38.9 37.45,38.9 36.83,0 37.45,-24.42 37.45,-38.9 v -82.28 h 40.14 v 92.21 c 0,16.55 -2.07,57.11 -77.59,57.11 -75.52,0 -77.59,-40.55 -77.59,-57.11 z"
   id="path8"
   inkscape:connector-curvature="0"
   style="fill:#222222" />
<polygon
   class="st0"
   points="917.25,709.79 873.6,709.79 793.11,606.75 792.7,606.75 792.7,709.79 753.8,709.79 753.8,562.06 800.35,562.06 877.94,665.1 878.35,665.1 878.35,562.06 917.25,562.06 "
   id="polygon10"
   style="fill:#222222"
   transform="translate(-103.51,-370.55)" />
<path
   class="st0"
   d="m 835.49,191.51 h 92.07 c 50.69,0 72.62,29.38 72.62,73.87 0,44.48 -22.76,73.86 -69.11,73.86 h -95.58 z m 40.14,119.59 h 44.69 c 26.69,0 38.49,-15.72 38.49,-47.18 0,-27.31 -11.59,-44.28 -42.21,-44.28 h -40.97 z"
   id="path12"
   inkscape:connector-curvature="0"
   style="fill:#222222" />
<path
   class="st0"
   d="m 1115.19,308.82 h -67.87 l -12,30.42 h -43.24 l 64.97,-147.73 h 48.42 l 64.97,147.73 h -43.24 z m -33.93,-85.45 -23.17,58.55 h 46.35 z"
   id="path14"
   inkscape:connector-curvature="0"
   style="fill:#222222" />
<polygon
   class="st0"
   points="1244.9,562.06 1394.7,562.06 1394.7,590.2 1339.87,590.2 1339.87,709.79 1299.73,709.79 1299.73,590.2 1244.9,590.2 "
   id="polygon16"
   style="fill:#222222"
   transform="translate(-103.51,-370.55)" />
<rect
   x="1298.09"
   y="191.50999"
   class="st0"
   width="40.139999"
   height="147.73"
   id="rect18"
   style="fill:#222222" />
<path
   class="st0"
   d="m 1443.76,184.81 c 79.45,0 91.87,47.18 91.87,78 0,30.83 -12.42,78 -91.87,78 -79.45,0 -91.87,-47.17 -91.87,-78 0.01,-30.82 12.42,-78 91.87,-78 m 0,127.87 c 36.42,0 49.24,-26.9 49.24,-49.86 0,-22.97 -12.83,-49.86 -49.24,-49.86 -36.41,0 -49.24,26.9 -49.24,49.86 0,22.97 12.83,49.86 49.24,49.86"
   id="path20"
   inkscape:connector-curvature="0"
   style="fill:#222222" />
<polygon
   class="st0"
   points="1816.5,709.79 1772.84,709.79 1692.35,606.75 1691.94,606.75 1691.94,709.79 1653.04,709.79 1653.04,562.06 1699.59,562.06 1777.19,665.1 1777.6,665.1 1777.6,562.06 1816.5,562.06 "
   id="polygon22"
   style="fill:#222222"
   transform="translate(-103.51,-370.55)" />
<path
   class="st1"
   d="m 60.78,130.32 c -25,0 -39.24,-15.65 -39.24,-37.61 0,-21.96 14.23,-38.22 39.24,-38.22 24.6,0 39.23,16.26 39.23,38.22 0.01,21.95 -14.63,37.61 -39.23,37.61 M 100.02,55.5 H 99.61 C 91.68,43.3 75.82,37.41 58.14,37.41 29.68,37.41 0,52.86 0,92.5 c 0,39.44 29.88,54.89 58.34,54.89 13.83,0 29.89,-3.45 41.27,-19.72 h 0.41 v 15.45 c 0,17.49 -10.98,32.12 -39.64,32.12 -19.52,0 -31.51,-3.45 -35.37,-17.28 H 4.68 c 4.27,29.48 30.69,33.14 53.66,33.14 43.71,0 62.01,-15.45 62.01,-53.67 V 39.85 h -20.33 z"
   id="path24"
   inkscape:connector-curvature="0"
   style="fill:#c72036" />
<rect
   x="144.47"
   y="0.0099975588"
   class="st1"
   width="20.33"
   height="146.37"
   id="rect26"
   style="fill:#c72036" />
<path
   class="st1"
   d="m 245.01,132.96 c -29.48,0 -40.25,-20.53 -40.25,-39.84 0,-19.32 10.77,-39.85 40.25,-39.85 29.48,0 40.25,20.53 40.25,39.85 -0.01,19.31 -10.78,39.84 -40.25,39.84 m 0,-96.77 c -41.47,0 -61.8,26.22 -61.8,56.92 0,30.69 20.33,56.92 61.8,56.92 41.47,0 61.8,-26.22 61.8,-56.92 0,-30.69 -20.34,-56.92 -61.8,-56.92"
   id="path28"
   inkscape:connector-curvature="0"
   style="fill:#c72036" />
<path
   class="st1"
   d="m 346.04,93.72 c 0,-24.4 15.86,-39.23 39.44,-39.23 23.78,0 39.02,14.64 39.02,39.23 0,20.33 -11.58,39.24 -39.02,39.24 -27.65,0 -39.44,-18.91 -39.44,-39.24 m 100.02,0 c 0,-35.78 -26.02,-56.31 -57.94,-56.31 -15.86,0 -32.52,5.7 -40.46,18.5 h -0.4 V 0 h -20.33 v 146.37 h 20.33 v -13.62 h 0.4 c 7.94,11.18 24.8,17.28 40.46,17.28 31.92,0.01 57.94,-20.53 57.94,-56.31"
   id="path30"
   inkscape:connector-curvature="0"
   style="fill:#c72036" />
<path
   class="st1"
   d="m 547,104.29 c 0,17.89 -19.32,29.89 -42.29,29.89 -14.84,0 -24.8,-6.91 -24.8,-16.87 0,-11.38 8.14,-15.25 24.19,-17.48 l 22.97,-2.85 c 11.38,-1.42 16.87,-2.84 19.93,-6.3 z m 35.37,42.09 v -14.23 c -2.23,0.61 -4.87,0.82 -7.11,0.82 -6.1,0 -9.14,-3.05 -9.14,-9.14 V 66.5 c 0,-25.01 -27.24,-30.29 -49,-30.29 -31.92,0 -50.21,10.37 -52.86,37 h 19.11 c 0.61,-16.26 15.65,-21.14 32.93,-21.14 16.47,0 30.7,2.84 30.7,17.48 0,9.55 -7.11,11.79 -18.5,12.8 l -23.18,2.44 c -34.15,3.86 -45.74,13.41 -45.74,33.13 0,13.83 8.13,32.12 43.3,32.12 17.28,0 37.01,-6.31 45.34,-17.28 1.42,12 7.93,14.84 18.29,14.84 4.88,0 10.99,-0.41 15.86,-1.22"
   id="path32"
   inkscape:connector-curvature="0"
   style="fill:#c72036" />
<rect
   x="600.26001"
   y="0.0099975588"
   class="st1"
   width="20.33"
   height="146.37"
   id="rect34"
   style="fill:#c72036" />
<polygon
   class="st1"
   points="896.95,410.4 866.46,491.72 866.05,491.72 839.02,410.4 816.65,410.4 790.23,491.72 789.82,491.72 760.34,410.4 737.77,410.4 779.04,516.93 800.59,516.93 827.22,435.61 827.63,435.61 854.27,516.93 876.42,516.93 918.5,410.4 "
   id="polygon36"
   style="fill:#c72036"
   transform="translate(-103.51,-370.55)" />
<path
   class="st1"
   d="m 882.28,132.96 c -29.48,0 -40.25,-20.53 -40.25,-39.84 0,-19.32 10.77,-39.85 40.25,-39.85 29.48,0 40.25,20.53 40.25,39.85 0,19.31 -10.77,39.84 -40.25,39.84 m 0,-96.77 c -41.47,0 -61.8,26.22 -61.8,56.92 0,30.69 20.33,56.92 61.8,56.92 41.47,0 61.8,-26.22 61.8,-56.92 0,-30.69 -20.33,-56.92 -61.8,-56.92"
   id="path38"
   inkscape:connector-curvature="0"
   style="fill:#c72036" />
<path
   class="st1"
   d="m 983.22,59.37 h -0.41 V 39.85 h -20.33 v 106.52 h 20.33 V 92.29 c 0,-22.97 14.02,-34.96 34.15,-34.96 5.49,0 9.35,0.61 14.44,2.03 V 37.4 c -3.86,-1.01 -6.5,-1.22 -11.59,-1.22 -13.62,0.01 -27.04,6.31 -36.59,23.19"
   id="path40"
   inkscape:connector-curvature="0"
   style="fill:#c72036" />
<path
   class="st1"
   d="m 1070.43,7.12 h -20.33 v 117.7 c 0,15.46 7.93,25.21 28.06,25.21 8.34,0 15.65,0 22.77,-1.43 v -17.08 c -4.67,0.82 -9.35,1.43 -14.03,1.43 -10.36,0 -16.46,-2.84 -16.46,-11.59 V 55.7 h 30.49 V 39.85 h -30.49 V 7.12 Z"
   id="path42"
   inkscape:connector-curvature="0"
   style="fill:#c72036" />
<path
   class="st1"
   d="m 1182.85,36.19 c -15.45,0 -31.71,4.88 -41.68,19.72 h -0.4 V 0 h -20.33 v 146.37 h 20.33 v -61.4 c 0,-20.94 16.47,-31.71 34.97,-31.71 21.96,0 31.51,8.95 31.51,24.6 v 68.51 h 20.33 V 73.79 c -0.01,-26.62 -19.12,-37.6 -44.73,-37.6"
   id="path44"
   inkscape:connector-curvature="0"
   style="fill:#c72036" />
</svg>