<svg width="399" height="215" viewBox="0 0 399 215" fill="none" xmlns="http://www.w3.org/2000/svg">
<path fill-rule="evenodd" clip-rule="evenodd" d="M82.1367 147.215C77.4951 143.379 73.6291 138.631 70.8386 133.244C63.5287 138.345 54.6402 141.352 45.0573 141.352C20.188 141.352 0 121.176 0 96.3198C0 78.6613 10.1956 63.3563 25.0328 55.9826C25.0464 39.7798 38.2091 26.6241 54.4214 26.6241C57.7972 26.6241 61.0368 27.1955 64.0587 28.243C70.7288 11.6864 86.9407 0 105.875 0C128.649 0 147.5 16.9241 150.511 38.8675C155.262 37.0309 160.421 36.0241 165.824 36.0241C184.432 36.0241 200.277 47.9825 206.048 64.6207C182.608 67.7769 163.239 83.7622 155.22 105.271C152.076 104.822 148.864 104.591 145.597 104.591C116.929 104.591 102 162.5 82.1367 147.215Z" fill="#ECFEFF"/>
<path fill-rule="evenodd" clip-rule="evenodd" d="M227.971 68.6427C232.314 44.9887 253.782 27 279.582 27C303.691 27 324.016 42.7082 330.115 64.081C331.299 63.9368 332.497 63.8581 333.723 63.8581C349.487 63.8581 362.298 76.1965 362.298 91.38C362.298 93.5697 362.025 95.7071 361.522 97.7523C382.949 102.276 399 120.659 399 142.634C399 167.993 377.627 188.58 351.296 188.58C338.84 188.58 327.486 183.965 318.978 176.425C315.316 198.283 295.604 215 271.888 215C257.131 215 243.926 208.523 235.173 198.374C229.155 203.108 221.477 205.94 213.119 205.94C193.856 205.94 178.212 190.874 178.212 172.319C178.212 170.746 178.321 169.199 178.539 167.678C163.142 157.7 153 140.772 153 121.577C153 90.9349 178.825 66.0617 210.626 66.0617C216.67 66.0617 222.51 66.9665 227.983 68.6317L227.971 68.6427Z" fill="#ECFEFF"/>
<circle cx="192.972" cy="99.7286" r="90.3175" fill="white" stroke="black"/>
<path d="M181.568 143.249C180.124 143.249 178.7 142.912 177.409 142.266C176.117 141.62 174.994 140.683 174.128 139.527L151.317 109.111C150.583 108.134 150.049 107.021 149.745 105.838C149.441 104.654 149.373 103.422 149.545 102.212C149.717 101.002 150.127 99.8381 150.749 98.7864C151.371 97.7347 152.195 96.8159 153.173 96.0827C154.15 95.3495 155.263 94.8161 156.447 94.5131C157.631 94.21 158.863 94.1434 160.072 94.3168C161.282 94.4902 162.446 94.9003 163.497 95.5237C164.548 96.147 165.466 96.9714 166.198 97.9498L181.122 117.848L219.452 60.351C220.129 59.3346 221 58.4616 222.015 57.782C223.03 57.1023 224.169 56.6292 225.367 56.3896C226.564 56.15 227.797 56.1488 228.996 56.3858C230.194 56.6229 231.334 57.0937 232.35 57.7712C233.366 58.4488 234.239 59.3199 234.919 60.3348C235.598 61.3497 236.072 62.4885 236.311 63.6863C236.551 64.8841 236.552 66.1173 236.315 67.3155C236.078 68.5138 235.607 69.6537 234.93 70.67L189.308 139.106C188.482 140.344 187.372 141.366 186.071 142.086C184.769 142.806 183.314 143.204 181.827 143.246C181.741 143.247 181.654 143.249 181.568 143.249Z" fill="#0891B2"/>
</svg>
