<svg width="302" height="270" viewBox="0 0 302 270" fill="none" xmlns="http://www.w3.org/2000/svg">
<g clip-path="url(#clip0_2136_4760)">
<path d="M299.35 103.253C299.242 103.254 299.137 103.221 299.048 103.159L152.52 1.52609C152.074 1.21824 151.544 1.05372 151.002 1.05465C150.459 1.05557 149.93 1.22188 149.485 1.53124L4.01294 103.158C3.89788 103.238 3.75547 103.27 3.61704 103.246C3.47861 103.221 3.3555 103.143 3.27479 103.029C3.19409 102.914 3.1624 102.772 3.18669 102.635C3.21099 102.497 3.28928 102.374 3.40434 102.294L148.877 0.667068C149.5 0.234028 150.241 0.00124829 151 5.0064e-06C151.76 -0.00123828 152.502 0.229112 153.126 0.660111L299.654 102.293C299.746 102.357 299.816 102.449 299.852 102.555C299.889 102.662 299.89 102.777 299.856 102.884C299.822 102.991 299.755 103.085 299.664 103.151C299.573 103.218 299.463 103.254 299.35 103.253Z" fill="#3F3D56"/>
<path d="M12.3252 106.857L151.146 4.39062L291.019 114.148L158.298 192.508L86.2421 176.15L12.3252 106.857Z" fill="#FFD209"/>
<path d="M153.1 163.929C152.578 163.93 152.062 163.829 151.58 163.633L65.9648 128.252V17.5063C65.966 16.527 66.3571 15.5881 67.0524 14.8956C67.7476 14.2032 68.6903 13.8136 69.6736 13.8125H233.919C234.902 13.8136 235.845 14.2032 236.54 14.8956C237.236 15.5881 237.627 16.527 237.628 17.5063V128.33L237.467 128.398L154.666 163.615C154.17 163.823 153.638 163.93 153.1 163.929Z" fill="#ECFEFF"/>
<path d="M153.098 164.193C152.542 164.194 151.992 164.086 151.477 163.877L65.6982 128.429V17.5064C65.6994 16.4572 66.1185 15.4512 66.8634 14.7093C67.6084 13.9674 68.6184 13.55 69.6719 13.5488H233.918C234.971 13.55 235.981 13.9674 236.726 14.7093C237.471 15.4512 237.89 16.4572 237.891 17.5064V128.504L154.768 163.858C154.24 164.08 153.672 164.193 153.098 164.193ZM66.7579 127.724L151.881 162.901C152.675 163.222 153.564 163.217 154.354 162.887L236.832 127.807V17.5064C236.831 16.737 236.523 15.9993 235.977 15.4552C235.431 14.9112 234.69 14.6051 233.918 14.6042H69.6719C68.8994 14.6051 68.1587 14.9112 67.6124 15.4552C67.0661 15.9993 66.7588 16.737 66.7579 17.5064L66.7579 127.724Z" fill="#3F3D56"/>
<path d="M298.291 102.197H298.185L237.361 128.064L154.142 163.456C153.817 163.592 153.468 163.663 153.115 163.665C152.762 163.666 152.413 163.599 152.086 163.466L66.2281 127.99L3.91004 102.239L3.81484 102.197H3.70877C2.72548 102.198 1.78277 102.588 1.08748 103.28C0.392183 103.973 0.00109104 104.912 0 105.891V266.305C0.00109244 267.285 0.392183 268.224 1.08748 268.916C1.78277 269.609 2.72548 269.998 3.70877 269.999H298.291C299.275 269.998 300.217 269.609 300.913 268.916C301.608 268.224 301.999 267.285 302 266.305V105.891C301.999 104.912 301.608 103.973 300.913 103.28C300.217 102.588 299.275 102.198 298.291 102.197ZM300.94 266.305C300.94 267.005 300.661 267.676 300.164 268.171C299.667 268.665 298.994 268.944 298.291 268.944H3.70877C3.00627 268.944 2.33262 268.665 1.83587 268.171C1.33913 267.676 1.05993 267.005 1.05965 266.305V105.891C1.06061 105.209 1.32634 104.553 1.80129 104.062C2.27623 103.57 2.92362 103.28 3.60814 103.253L66.2281 129.13L151.678 164.442C152.603 164.817 153.64 164.811 154.561 164.426L237.361 129.209L298.397 103.253C299.081 103.282 299.726 103.573 300.2 104.064C300.674 104.555 300.939 105.21 300.94 105.891V266.305Z" fill="#3F3D56"/>
<path d="M147.178 136.141C145.588 136.141 144.019 135.772 142.596 135.063C141.173 134.354 139.935 133.325 138.981 132.057L113.848 98.6806C113.04 97.6085 112.451 96.388 112.116 95.0892C111.781 93.7903 111.706 92.4384 111.896 91.1107C112.086 89.7831 112.537 88.5057 113.223 87.3517C113.909 86.1976 114.816 85.1895 115.893 84.3849C116.97 83.5803 118.196 82.995 119.5 82.6625C120.805 82.33 122.162 82.2568 123.495 82.4471C124.828 82.6374 126.11 83.0874 127.268 83.7714C128.426 84.4555 129.438 85.3601 130.244 86.4337L146.687 108.268L188.918 45.1759C189.664 44.0607 190.624 43.1027 191.742 42.3569C192.861 41.6111 194.115 41.0919 195.435 40.8291C196.754 40.5662 198.113 40.5648 199.433 40.8249C200.753 41.085 202.009 41.6016 203.129 42.3451C204.249 43.0886 205.21 44.0445 205.959 45.1582C206.708 46.2719 207.229 47.5215 207.493 48.8358C207.757 50.1502 207.759 51.5034 207.497 52.8182C207.236 54.1331 206.718 55.3839 205.971 56.4992L155.706 131.595C154.796 132.954 153.573 134.075 152.139 134.865C150.705 135.655 149.102 136.092 147.464 136.137C147.369 136.139 147.273 136.141 147.178 136.141Z" fill="#0891B2"/>
</g>
<defs>
<clipPath id="clip0_2136_4760">
<rect width="302" height="270" fill="white"/>
</clipPath>
</defs>
</svg>
