<svg width="460" height="272" viewBox="0 0 460 272" fill="none" xmlns="http://www.w3.org/2000/svg">
<path d="M404.155 29.1182C407.186 29.1182 409.832 30.1021 412.067 32.0664L412.491 32.4404C414.41 34.2039 415.624 36.3486 416.123 38.8623C416.916 38.6886 417.71 38.5996 418.506 38.5996C420.225 38.5997 422.007 39.0108 423.85 39.8135C425.67 38.7471 427.694 38.2148 429.909 38.2148C433.524 38.2149 436.536 39.553 438.908 42.2119C439.71 41.9317 440.689 41.8028 441.824 41.8027C444.858 41.8027 447.508 42.7889 449.745 44.7578H449.744C451.995 46.6648 453.371 49.0098 453.855 51.7793C457.12 54.2556 458.77 57.5315 458.771 61.5674C458.771 64.1541 458.01 66.4842 456.494 68.541L456.495 68.542C455.101 70.5457 453.275 71.9997 451.029 72.8994C448.707 76.4658 445.318 78.2578 440.928 78.2578C438.204 78.2578 435.79 77.4805 433.704 75.9258C431.758 76.9643 429.722 77.4892 427.603 77.4893C424.191 77.4893 421.397 76.3977 419.26 74.2119C419.719 75.5123 419.948 76.8934 419.948 78.3525C419.948 80.1468 419.54 81.8954 418.732 83.5947C419.709 85.4683 420.204 87.3952 420.204 89.3711C420.204 93.5494 418.569 96.8162 415.32 99.1201C417.199 99.9767 418.75 101.32 419.969 103.141C421.491 105.201 422.255 107.536 422.255 110.128C422.255 113.263 421.129 116.003 418.899 118.322L418.898 118.321C416.792 120.6 414.199 121.892 411.141 122.188C408.952 123.73 406.578 124.512 404.027 124.512C400.993 124.512 398.344 123.526 396.106 121.557C393.935 119.645 392.605 117.259 392.124 114.418C388.691 112.024 386.952 108.743 386.952 104.619C386.952 100.657 388.419 97.5028 391.347 95.209C389.515 94.1613 388.091 92.8369 387.098 91.2275C385.968 89.3975 385.415 87.2335 385.415 84.7588C385.415 81.9895 386.267 79.5208 387.968 77.373C389.359 75.616 391.057 74.3357 393.055 73.5381C391.317 72.635 389.869 71.3528 388.716 69.6953C387.283 67.6359 386.568 65.3051 386.568 62.7207C386.568 60.6048 387.054 58.6638 388.026 56.9072C386.204 55.8603 384.68 54.44 383.46 52.6504L383.455 52.6426L383.45 52.6357C382.199 50.6692 381.571 48.5174 381.571 46.1924C381.571 42.8821 382.786 40.0114 385.19 37.6064C387.595 35.2015 390.466 33.9874 393.776 33.9873C394.009 33.9873 394.236 33.9981 394.442 34.0312C396.756 30.7606 400.013 29.1182 404.155 29.1182Z" fill="#F3F4F6" stroke="#6B7280" stroke-width="1.09195"/>
<path d="M226.404 22.3779C229.435 22.378 232.081 23.3618 234.316 25.3262L234.74 25.7002C236.659 27.4637 237.873 29.6084 238.372 32.1221C239.165 31.9483 239.959 31.8594 240.755 31.8594C242.474 31.8594 244.256 32.2706 246.099 33.0732C247.919 32.0069 249.943 31.4746 252.158 31.4746C255.773 31.4747 258.785 32.8128 261.157 35.4717C261.959 35.1915 262.938 35.0625 264.073 35.0625C267.104 35.0625 269.751 36.0462 271.986 38.0107L272.409 38.3828C274.415 40.2213 275.651 42.4442 276.104 45.0391C279.369 47.5153 281.019 50.7913 281.02 54.8271C281.02 57.4192 280.258 59.7546 278.735 61.8145C277.343 63.8118 275.52 65.2614 273.278 66.1592C270.956 69.7256 267.567 71.5176 263.177 71.5176C260.453 71.5176 258.039 70.7403 255.953 69.1855C254.007 70.2241 251.971 70.749 249.852 70.749C246.44 70.749 243.646 69.6575 241.509 67.4717C241.968 68.772 242.197 70.1532 242.197 71.6123C242.197 73.4063 241.788 75.1544 240.981 76.8535C241.958 78.7273 242.453 80.6547 242.453 82.6309C242.453 86.8091 240.818 90.076 237.569 92.3799C239.448 93.2364 240.999 94.58 242.218 96.4004C243.74 98.4603 244.504 100.796 244.504 103.388C244.504 106.523 243.378 109.263 241.148 111.582L241.147 111.581C239.041 113.86 236.448 115.152 233.39 115.447C231.201 116.989 228.828 117.771 226.276 117.771C223.242 117.771 220.593 116.785 218.355 114.816C216.184 112.905 214.854 110.519 214.373 107.678C210.94 105.284 209.201 102.003 209.201 97.8789C209.201 93.9172 210.668 90.7626 213.596 88.4688C211.764 87.421 210.34 86.0967 209.347 84.4873C208.217 82.6572 207.664 80.4933 207.664 78.0186C207.664 75.2493 208.516 72.7806 210.217 70.6328C211.608 68.8758 213.306 67.5955 215.304 66.7979C213.566 65.8947 212.118 64.6126 210.965 62.9551C209.532 60.8956 208.817 58.5649 208.817 55.9805C208.817 53.8646 209.303 51.9235 210.275 50.167C208.453 49.12 206.929 47.6998 205.709 45.9102L205.704 45.9023L205.699 45.8955C204.448 43.929 203.82 41.7772 203.82 39.4521C203.82 36.1419 205.035 33.2712 207.439 30.8662C209.844 28.4613 212.715 27.2472 216.025 27.2471C216.258 27.2471 216.485 27.2578 216.691 27.291C219.005 24.0204 222.262 22.3779 226.404 22.3779Z" fill="#F3F4F6" stroke="#6B7280" stroke-width="1.09195"/>
<path d="M142.235 22.7686C145.266 22.7686 147.912 23.7524 150.147 25.7168L150.571 26.0908C152.49 27.8543 153.704 29.999 154.203 32.5127C154.996 32.3389 155.79 32.25 156.586 32.25C158.305 32.2501 160.088 32.6612 161.93 33.4639C163.75 32.3975 165.774 31.8652 167.989 31.8652C171.604 31.8653 174.616 33.2034 176.988 35.8623C177.79 35.5821 178.769 35.4532 179.904 35.4531C182.935 35.4531 185.582 36.4369 187.817 38.4014L188.24 38.7734C190.246 40.6119 191.482 42.8348 191.936 45.4297C195.2 47.906 196.85 51.1819 196.851 55.2178C196.851 57.8098 196.089 60.1452 194.566 62.2051C193.174 64.2024 191.351 65.652 189.109 66.5498C186.787 70.1162 183.398 71.9082 179.008 71.9082C176.284 71.9082 173.87 71.1309 171.784 69.5762C169.838 70.6147 167.802 71.1396 165.683 71.1396C162.271 71.1396 159.477 70.0481 157.34 67.8623C157.799 69.1626 158.028 70.5438 158.028 72.0029C158.028 73.7972 157.62 75.5457 156.812 77.2451C157.789 79.1187 158.284 81.0455 158.284 83.0215C158.284 87.1997 156.649 90.4666 153.4 92.7705C155.279 93.627 156.83 94.9707 158.049 96.791C159.571 98.8509 160.335 101.186 160.335 103.778C160.335 106.914 159.209 109.654 156.979 111.973L156.979 111.972C154.872 114.25 152.279 115.542 149.221 115.838C147.032 117.38 144.659 118.162 142.107 118.162C139.073 118.162 136.424 117.176 134.187 115.207C132.015 113.296 130.685 110.909 130.204 108.068C126.771 105.675 125.032 102.394 125.032 98.2695C125.032 94.3079 126.499 91.1532 129.427 88.8594C127.595 87.8117 126.171 86.4873 125.178 84.8779C124.048 83.0479 123.495 80.8839 123.495 78.4092C123.495 75.6399 124.348 73.1712 126.048 71.0234C127.439 69.2664 129.137 67.9861 131.135 67.1885C129.398 66.2854 127.949 65.0032 126.796 63.3457C125.363 61.2863 124.648 58.9555 124.648 56.3711C124.648 54.2552 125.134 52.3142 126.106 50.5576C124.284 49.5107 122.76 48.0904 121.54 46.3008L121.535 46.293L121.53 46.2861C120.279 44.3196 119.651 42.1678 119.651 39.8428C119.651 36.5325 120.866 33.6618 123.271 31.2568C125.675 28.8519 128.546 27.6378 131.856 27.6377C132.089 27.6377 132.316 27.6485 132.522 27.6816C134.836 24.411 138.094 22.7686 142.235 22.7686Z" fill="#F3F4F6" stroke="#6B7280" stroke-width="1.09195"/>
<path d="M77.4424 0.545898C81.467 0.545898 84.7711 2.22831 87.3223 5.54297H87.6309C87.9513 5.46552 88.236 5.41511 88.4609 5.41504C91.9605 5.41504 94.953 6.7498 97.4121 9.38672H97.7559C98.0983 9.30539 98.4187 9.25879 98.7119 9.25879C102.023 9.25886 104.855 10.4735 107.177 12.8848H107.176C109.578 15.2045 110.789 18.0313 110.789 21.3359C110.789 24.6462 109.575 27.5169 107.17 29.9219C104.846 32.2458 102.016 33.413 98.7119 33.4131C96.976 33.4131 95.2142 33.0308 93.4297 32.2803C92.358 34.0655 91.0093 35.4409 89.375 36.3838C87.6128 37.4004 85.5503 37.8975 83.208 37.8975H82.2412C80.0457 39.6027 77.544 40.4599 74.752 40.46C71.8429 40.46 69.2919 39.5121 67.1182 37.6289C65.1956 38.6547 63.2547 39.1786 61.2988 39.1787C59.3611 39.1787 57.5376 38.7407 55.8359 37.8662C54.5191 38.7966 52.9374 39.4053 51.1064 39.708C51.1609 39.8169 51.2083 39.9108 51.248 39.9902C52.0993 40.9234 52.7133 41.8535 53.0596 42.7822C54.178 42.3847 55.388 42.1875 56.6855 42.1875C60.0013 42.1875 62.841 43.4062 65.1787 45.8174C67.3357 43.9956 69.8945 43.084 72.8301 43.084C76.3797 43.084 79.3967 44.3931 81.8496 46.9902C83.317 46.6091 84.7525 46.415 86.1553 46.415H87.3496C88.3463 46.0693 89.5325 45.9033 90.8955 45.9033C94.1997 45.9033 97.0271 47.113 99.3467 49.5146L99.7852 49.9561C101.906 52.1928 102.974 54.8764 102.974 57.9805C102.974 59.4976 102.578 61.1999 101.82 63.0791V63.7461C101.82 68.3769 99.7563 71.8813 95.6797 74.1973C92.9411 76.3909 89.7596 77.4892 86.1553 77.4893C83.4732 77.4893 80.9832 76.8511 78.6934 75.5771C76.3412 77.9551 73.4814 79.1552 70.1396 79.1553C67.4531 79.1553 65.0693 78.3801 63.0049 76.8359C62.6205 79.4377 61.6444 81.8008 60.0781 83.9189L60.0791 83.9199C58.9845 85.4754 57.6797 86.768 56.1699 87.7998C57.2691 87.4583 58.4242 87.2881 59.6328 87.2881H59.6973C61.0462 86.954 62.1418 86.7754 62.9639 86.7754C65.4844 86.7754 67.8325 87.5385 69.999 89.0439C71.44 88.7329 72.603 88.5693 73.4707 88.5693C76.3985 88.5694 78.9655 89.4905 81.1523 91.3242C81.421 91.244 81.6677 91.1841 81.8867 91.1543C84.2049 87.9814 87.4414 86.3917 91.5361 86.3916C93.968 86.3916 96.0993 86.9338 97.9072 88.041C99.65 89.1084 101.061 90.6828 102.15 92.7354C104.803 93.3065 107.002 94.6742 108.731 96.8281H108.732C110.616 98.9814 111.558 101.545 111.558 104.491C111.558 106.9 110.887 109.094 109.55 111.062C108.332 112.976 106.687 114.426 104.626 115.408C103.644 117.381 102.2 118.976 100.3 120.188C98.3287 121.532 96.1291 122.206 93.7148 122.206C91.6547 122.206 89.8662 121.821 88.3721 121.025C86.2161 122.577 83.8077 123.359 81.1582 123.359C78.6549 123.359 76.3676 122.641 74.3115 121.211V121.21C72.6499 120.076 71.3407 118.62 70.3838 116.852C69.4245 118.538 68.1166 119.914 66.46 120.968L66.459 120.967C64.5718 122.222 62.4192 122.847 60.0176 122.847C56.2139 122.847 53.1387 121.471 50.8428 118.721C48.6919 120.447 46.1474 121.309 43.2324 121.309C40.2531 121.309 37.6116 120.315 35.3252 118.346C32.2748 118.128 29.6859 116.876 27.584 114.599L27.5762 114.59C25.5227 112.268 24.4923 109.534 24.4922 106.413C24.4922 105.081 24.6981 103.812 25.1133 102.609C23.1024 101.709 21.4327 100.349 20.1123 98.5332L20.1045 98.5225L20.0967 98.5107C18.7564 96.4556 18.0859 94.1731 18.0859 91.6777C18.086 90.2357 18.4071 88.7683 19.0303 87.2764C17.2972 85.0286 16.4199 82.5196 16.4199 79.7617C16.42 77.5583 16.945 75.5201 17.9961 73.6572C18.1648 73.0721 18.4091 72.3012 18.7266 71.3467V70.4824L18.7373 70.4297C18.7875 70.1787 18.8432 69.9513 18.9033 69.7568C16.9119 67.4908 15.9082 64.8405 15.9082 61.8242C15.9082 59.7229 16.3841 57.7715 17.3398 55.9795C15.7071 53.8238 14.8828 51.411 14.8828 48.7549C14.8828 47.7451 15.0039 46.8046 15.2471 45.9355C15.0041 45.0669 14.8828 44.1264 14.8828 43.1172C14.8829 40.8944 15.4581 38.9007 16.6133 37.1514C16.1442 35.8824 15.9082 34.5395 15.9082 33.124C15.9082 31.3125 16.3237 29.5468 17.1465 27.832C16.8306 26.8704 16.6768 25.7701 16.6768 24.5391C16.6768 21.2348 17.844 18.405 20.168 16.0811C22.573 13.6761 25.4436 12.4619 28.7539 12.4619H29.0967C29.4919 12.3884 29.9645 12.3481 30.5088 12.3379C32.6136 9.23907 35.6349 7.53393 39.5205 7.22656C41.8273 4.82216 44.7437 3.62109 48.2295 3.62109C51.5731 3.62112 54.3687 4.74182 56.5762 6.98926C57.8333 6.53701 59.1954 6.31152 60.6582 6.31152C62.6212 6.3116 64.5386 6.79827 66.4062 7.75684C67.3147 5.69426 68.7129 4.00317 70.5957 2.69336C72.6518 1.26306 74.9391 0.54591 77.4424 0.545898Z" fill="#F3F4F6" stroke="#6B7280" stroke-width="1.09195"/>
<path d="M10.3751 78.6746C-14.7207 130.369 45.5287 148.174 74.326 143.3C102.094 138.6 108.147 162.497 136.184 162.497C159.685 162.497 185.122 165.353 208.276 160.764C223.252 157.795 239.45 154.979 250.579 143.3C256.047 137.562 259.589 133.253 267.094 130.369C291.439 121.014 327.367 123.656 351 109.706C372.285 97.1417 381.165 66.1058 361.227 45.1837C351.419 34.8913 340.645 30.6804 327.067 31.3137C315.982 31.8307 303.164 39.5934 298.853 49.9828C289.445 72.6519 290.476 90.4437 306.776 104.474C321.433 117.09 334.266 126.49 352.573 132.603C448.186 153.491 401.596 195.547 377.855 190.785C354.115 186.023 318.17 207.449 318.17 207.449" stroke="#6B7280" stroke-width="2.1839" stroke-linecap="round" stroke-dasharray="10.92 10.92"/>
<mask id="mask0_2171_20800" style="mask-type:luminance" maskUnits="userSpaceOnUse" x="185" y="169" width="123" height="68">
<path d="M185.266 219.489L307.138 169.288L287.961 190.72L295.803 216.005L273.768 217.989L264.579 236.531L185.266 219.489Z" fill="white"/>
</mask>
<g mask="url(#mask0_2171_20800)">
<path d="M295.803 216.004L273.009 218.057L278.932 207.567L295.803 216.004Z" fill="#6B7280"/>
<path d="M287.959 190.719L185.264 219.488L307.137 169.287L287.959 190.719Z" fill="#F3F4F6"/>
<path d="M295.801 216.005L278.93 207.568L185.264 219.489L287.959 190.72L295.801 216.005Z" fill="white"/>
<path d="M278.928 207.567L264.575 236.531L185.262 219.489L278.928 207.567Z" fill="#F3F4F6"/>
</g>
<path fill-rule="evenodd" clip-rule="evenodd" d="M296.429 216.408L274.077 218.421L264.842 237.055L183.691 219.618L308.864 168.058L288.494 190.822L296.429 216.408ZM295.186 215.576L287.437 190.592L305.422 170.493L186.85 219.335L264.324 235.982L273.468 217.531L295.186 215.576Z" fill="#6B7280"/>
<path fill-rule="evenodd" clip-rule="evenodd" d="M280.262 208.266L274.172 218.224L273.369 217.733L279.459 207.775L280.262 208.266Z" fill="#6B7280"/>
</svg>
