<svg width="648" height="474" viewBox="0 0 648 474" fill="none" xmlns="http://www.w3.org/2000/svg">
<path fill-rule="evenodd" clip-rule="evenodd" d="M112.58 83.5324C118.058 52.5567 145.142 29 177.689 29C208.104 29 233.745 49.5703 241.439 77.5587C242.933 77.3699 244.444 77.2668 245.99 77.2668C265.878 77.2668 282.039 93.4244 282.039 113.308C282.039 116.175 281.695 118.974 281.06 121.652C308.092 127.576 328.341 151.649 328.341 180.427C328.341 213.634 301.377 240.594 268.16 240.594C252.446 240.594 238.123 234.55 227.389 224.677C222.769 253.3 197.901 275.192 167.982 275.192C149.366 275.192 132.707 266.71 121.664 253.42C114.073 259.619 104.387 263.327 93.8425 263.327C69.5413 263.327 49.8064 243.598 49.8064 219.3C49.8064 217.24 49.9438 215.214 50.2186 213.222C30.7945 200.155 18 177.988 18 152.852C18 112.725 50.5795 80.1526 90.6974 80.1526C98.3228 80.1526 105.691 81.3373 112.595 83.518L112.58 83.5324Z" fill="#ECFEFF"/>
<path fill-rule="evenodd" clip-rule="evenodd" d="M362.239 254.306C367.718 223.331 394.801 199.774 427.348 199.774C457.764 199.774 483.404 220.344 491.098 248.333C492.592 248.144 494.104 248.041 495.65 248.041C515.537 248.041 531.698 264.198 531.698 284.082C531.698 286.949 531.355 289.748 530.719 292.426C557.751 298.35 578 322.423 578 351.201C578 384.408 551.037 411.368 517.82 411.368C502.105 411.368 487.782 405.324 477.048 395.451C472.428 424.074 447.561 445.966 417.642 445.966C399.025 445.966 382.366 437.484 371.324 424.194C363.733 430.393 354.047 434.101 343.502 434.101C319.201 434.101 299.466 414.372 299.466 390.074C299.466 388.014 299.603 385.988 299.878 383.996C280.454 370.929 267.659 348.762 267.659 323.626C267.659 283.499 300.239 250.927 340.357 250.927C347.982 250.927 355.35 252.111 362.254 254.292L362.239 254.306Z" fill="#ECFEFF"/>
<path d="M344.443 114.091L362.437 116.739L438.509 251.701L362.437 386.664L343.199 389.494L421.038 251.701L344.443 114.091Z" fill="#100F0D"/>
<path d="M113.49 251.697L191.329 389.437L172.09 386.66L96.0186 251.697L172.09 116.735L189.971 114.201L113.49 251.697Z" fill="#100F0D"/>
<mask id="mask0_1843_5988" style="mask-type:luminance" maskUnits="userSpaceOnUse" x="139" y="151" width="327" height="184">
<path d="M465.306 151.692L139.831 242.671L211.223 260.618L232.796 334.456L281.069 301.096L327.612 329.42L465.306 151.692Z" fill="white"/>
</mask>
<g mask="url(#mask0_1843_5988)">
<path d="M232.796 334.456L282.73 299.949L254.91 285.179L232.796 334.456Z" fill="#231F20"/>
<path d="M211.223 260.618L465.306 151.692L139.831 242.671L211.223 260.618Z" fill="#F9D00B"/>
<path d="M232.796 334.456L254.91 285.179L465.306 151.692L211.223 260.618L232.796 334.456Z" fill="white"/>
<path d="M254.91 285.179L327.612 329.42L465.306 151.692L254.91 285.179Z" fill="#F9D00B"/>
</g>
<path d="M465.306 151.692L139.831 242.671L211.223 260.618L232.796 334.456L281.069 301.096L327.612 329.42L465.306 151.692Z" stroke="#231F20" stroke-width="4.85216" stroke-miterlimit="10"/>
<path d="M281.069 301.096L253.697 287.883" stroke="#231F20" stroke-width="4.85216" stroke-miterlimit="10"/>
</svg>
