<svg fill="none" height="474" viewBox="0 0 648 474" width="648" xmlns="http://www.w3.org/2000/svg" xmlns:xlink="http://www.w3.org/1999/xlink"><mask id="a" height="184" maskUnits="userSpaceOnUse" width="327" x="139" y="151"><path d="m465.306 151.692-325.475 90.979 71.392 17.947 21.573 73.838 48.273-33.36 46.543 28.324z" fill="#fff"/></mask><path clip-rule="evenodd" d="m112.58 83.5324c5.478-30.9757 32.562-54.5324 65.109-54.5324 30.415 0 56.056 20.5703 63.75 48.5587 1.494-.1888 3.005-.2919 4.551-.2919 19.888 0 36.049 16.1576 36.049 36.0412 0 2.867-.344 5.666-.979 8.344 27.032 5.924 47.281 29.997 47.281 58.775 0 33.207-26.964 60.167-60.181 60.167-15.714 0-30.037-6.044-40.771-15.917-4.62 28.623-29.488 50.515-59.407 50.515-18.616 0-35.275-8.482-46.318-21.772-7.591 6.199-17.277 9.907-27.8215 9.907-24.3012 0-44.0361-19.729-44.0361-44.027 0-2.06.1374-4.086.4122-6.078-19.4241-13.067-32.2186-35.234-32.2186-60.37 0-40.127 32.5795-72.6994 72.6974-72.6994 7.6254 0 14.9936 1.1847 21.8976 3.3654z" fill="#ecfeff" fill-rule="evenodd"/><path clip-rule="evenodd" d="m362.239 254.306c5.479-30.975 32.562-54.532 65.109-54.532 30.416 0 56.056 20.57 63.75 48.559 1.494-.189 3.006-.292 4.552-.292 19.887 0 36.048 16.157 36.048 36.041 0 2.867-.343 5.666-.979 8.344 27.032 5.924 47.281 29.997 47.281 58.775 0 33.207-26.963 60.167-60.18 60.167-15.715 0-30.038-6.044-40.772-15.917-4.62 28.623-29.487 50.515-59.406 50.515-18.617 0-35.276-8.482-46.318-21.772-7.591 6.199-17.277 9.907-27.822 9.907-24.301 0-44.036-19.729-44.036-44.027 0-2.06.137-4.086.412-6.078-19.424-13.067-32.219-35.234-32.219-60.37 0-40.127 32.58-72.699 72.698-72.699 7.625 0 14.993 1.184 21.897 3.365z" fill="#ecfeff" fill-rule="evenodd"/><path d="m344.443 114.091 17.994 2.648 76.072 134.962-76.072 134.963-19.238 2.83 77.839-137.793z" fill="#100f0d"/><path d="m113.49 251.697 77.839 137.74-19.239-2.777-76.0714-134.963 76.0714-134.962 17.881-2.534z" fill="#100f0d"/><g mask="url(#a)"><path d="m232.796 334.456 49.934-34.507-27.82-14.77z" fill="#231f20"/><path d="m211.223 260.618 254.083-108.926-325.475 90.979z" fill="#f9d00b"/><path d="m232.796 334.456 22.114-49.277 210.396-133.487-254.083 108.926z" fill="#fff"/><path d="m254.91 285.179 72.702 44.241 137.694-177.728z" fill="#f9d00b"/></g><g stroke="#231f20" stroke-miterlimit="10" stroke-width="4.85216"><path d="m465.306 151.692-325.475 90.979 71.392 17.947 21.573 73.838 48.273-33.36 46.543 28.324z"/><path d="m281.069 301.096-27.372-13.213"/></g></svg>