<svg fill="none" height="1899" viewBox="0 0 1920 1899" width="1920" xmlns="http://www.w3.org/2000/svg" xmlns:xlink="http://www.w3.org/1999/xlink"><mask id="a" height="671" maskUnits="userSpaceOnUse" width="1259" x="556" y="292"><path d="m556.268 292.399 1257.842 333.773-275.91 65.841-83.37 270.888-186.55-122.384-179.88 103.912z" fill="#fff"/></mask><mask id="b" height="202" maskUnits="userSpaceOnUse" width="378" x="2" y="424"><path d="m2.27147 424.462 377.50253 100.172-82.804 19.76-25.021 81.299-55.989-36.73-53.984 31.186z" fill="#fff"/></mask><mask id="c" height="405" maskUnits="userSpaceOnUse" width="758" x="187" y="908"><path d="m187.555 908.931 756.856 200.839-166.015 39.61-50.165 163-112.252-73.64-108.232 62.52z" fill="#fff"/></mask><mask id="d" height="211" maskUnits="userSpaceOnUse" width="395" x="1051" y="69"><path d="m1051.37 69.5261 394.07 104.5689-86.44 20.627-26.12 84.868-58.44-38.342-56.35 32.555z" fill="#fff"/></mask><mask id="e" height="179" maskUnits="userSpaceOnUse" width="335" x="1498" y="1044"><path d="m1498.01 1044.3 334.95 88.88-73.47 17.53-22.2 72.13-49.68-32.59-47.9 27.67z" fill="#fff"/></mask><mask id="f" height="143" maskUnits="userSpaceOnUse" width="268" x="202" y="69"><path d="m202.603 69.0305 266.473 70.7095-58.45 13.949-17.662 57.387-39.522-25.927-38.106 22.014z" fill="#fff"/></mask><mask id="g" height="303" maskUnits="userSpaceOnUse" width="567" x="929" y="1250"><path d="m929.41 1250.21 566.25 150.25-124.2 29.65-37.53 121.94-83.99-55.09-80.97 46.78z" fill="#fff"/></mask><g clip-rule="evenodd" fill="#ecfeff" fill-rule="evenodd"><path d="m472.272 847.034c-26.684-22.075-48.909-49.391-64.952-80.389-42.023 29.352-93.122 46.652-148.213 46.652-142.97 0-259.0278984-116.085-259.0278984-259.101 0-101.602 58.6128984-189.662 143.9098984-232.088.078-93.227 75.749-168.921 168.951-168.921 19.407 0 38.031 3.288 55.404 9.315 38.345-95.2621 131.545-162.502 240.397-162.502 130.921 0 239.296 97.3762 256.604 223.632 27.312-10.567 56.971-16.36 88.036-16.36 106.969 0 198.059 68.805 231.239 164.536-134.75 18.16-246.104 110.135-292.2 233.892-18.076-2.583-36.544-3.914-55.325-3.914-164.805 0-306.046 101.46-364.823 245.248z"/><path d="m1274.3 1605.22v2.98c0 160.07-129.98 290.1-290.021 290.1-70.272 0-134.755-25.05-184.994-66.77-50.239 41.72-114.721 66.77-184.993 66.77-75.281 0-143.91-28.73-195.48-75.85-44.213 46.73-106.816 75.85-176.151 75.85-133.971 0-242.661-108.81-242.661-242.73 0-121.49 89.3657-222.23 205.88-240.01-2.113-12.83-3.208-25.98-3.208-39.37 0-133.93 108.774-242.73 242.661-242.73 7.669 0 15.338.39 22.85 1.1 24.729 65.67 66.438 122.97 119.808 166.57 1.174 144.26 118.712 261.04 263.255 261.04 42.336 0 82.402-10.01 117.851-27.78 59.003 51.03 136.003 81.87 220.043 81.87 29.43 0 57.99-3.75 85.14-10.88z"/><path d="m936.88 679.77c24.963-141.211 148.37-248.6 296.67-248.6 138.59 0 255.42 93.775 290.48 221.368 6.81-.861 13.7-1.331 20.74-1.331 90.62 0 164.25 73.658 164.25 164.301 0 13.072-1.56 25.832-4.46 38.042 123.18 27.006 215.44 136.748 215.44 267.94 0 151.38-122.86 274.29-274.21 274.29-71.61 0-136.87-27.56-185.78-72.56-21.05 130.48-134.36 230.28-270.69 230.28-84.82 0-160.73-38.67-211.045-99.25-34.589 28.26-78.724 45.16-126.771 45.16-110.729 0-200.652-89.94-200.652-200.71 0-9.39.626-18.63 1.878-27.71-88.506-59.56-146.805-160.62-146.805-275.207 0-182.932 148.45-331.421 331.248-331.421 34.745 0 68.317 5.401 99.775 15.343z"/></g><g mask="url(#a)"><path d="m1454.83 962.901-192.97-126.593 107.51-54.188z" fill="#231f20"/><path d="m1538.2 692.015-981.932-399.615 1257.842 333.774z" fill="#f9d00b"/><path d="m1454.82 962.901-85.46-180.781-813.103-489.721 981.933 399.614z" fill="#fff"/><path d="m1369.36 782.113-280.97 162.309-532.13-652.03z" fill="#f9d00b"/></g><path clip-rule="evenodd" d="m1456.39 967.24-188.21-123.472-180.44 104.238-539.042-660.493 1276.762 338.794-285.08 68.03zm-3.13-8.693 82.75-268.873 266.73-63.652-1238.915-328.753 525.225 643.568 179.31-103.586z" fill="#231f20" fill-rule="evenodd"/><path clip-rule="evenodd" d="m1375.2 794.559-105.78 48.475-2.31-5.046 105.78-48.475z" fill="#231f20" fill-rule="evenodd"/><g mask="url(#b)"><path d="m271.949 625.693-57.916-37.993 32.267-16.263z" fill="#231f20"/><path d="m296.97 544.395-294.69853-119.933 377.50253 100.172z" fill="#f9d00b"/><path d="m271.945 625.693-25.649-54.256-244.02796-146.975 294.69796 119.932z" fill="#fff"/><path d="m246.297 571.434-84.324 48.712-159.70419-195.687z" fill="#f9d00b"/></g><path clip-rule="evenodd" d="m272.417 627-56.486-37.057-54.154 31.284-161.77696948-198.227 383.18196948 101.679-85.558 20.417zm-.94-2.609 24.835-80.694 80.052-19.104-371.82405-98.665 157.63205 193.148 53.814-31.088z" fill="#231f20" fill-rule="evenodd"/><path clip-rule="evenodd" d="m248.051 575.175-31.747 14.549-.694-1.515 31.747-14.548z" fill="#231f20" fill-rule="evenodd"/><g mask="url(#c)"><path d="m728.233 1312.38-116.116-76.17 64.692-32.61z" fill="#231f20"/><path d="m778.396 1149.38-590.841-240.448 756.856 200.838z" fill="#e5e7eb"/><path d="m728.225 1312.38-51.424-108.78-489.253-294.669 590.842 240.449z" fill="#fff"/><path d="m676.802 1203.6-169.061 97.66-320.191-392.335z" fill="#e5e7eb"/></g><path clip-rule="evenodd" d="m729.17 1315-113.251-74.29-108.571 62.72-324.348-397.43 768.242 203.86-171.534 40.93zm-1.885-5.23 49.792-161.78 160.496-38.31-745.471-197.809 316.036 387.239 107.893-62.33z" fill="#231f20" fill-rule="evenodd"/><path clip-rule="evenodd" d="m680.318 1211.1-63.649 29.16-1.392-3.03 63.649-29.17z" fill="#231f20" fill-rule="evenodd"/><g mask="url(#d)"><path d="m1332.89 279.59-60.46-39.661 33.68-16.977z" fill="#231f20"/><path d="m1359 194.723-307.63-125.1962 394.07 104.5692z" fill="#e5e7eb"/><path d="m1332.88 279.59-26.77-56.638-254.74-153.4259 307.63 125.1959z" fill="#fff"/><path d="m1306.11 222.95-88.03 50.85-166.71-204.2766z" fill="#e5e7eb"/></g><path clip-rule="evenodd" d="m1333.37 280.954-58.96-38.683-56.53 32.657-168.88-206.9282 400 106.1422-89.31 21.313zm-.98-2.724 25.93-84.236 83.56-19.942-388.14-102.9955 164.55 201.6255 56.18-32.453z" fill="#231f20" fill-rule="evenodd"/><path clip-rule="evenodd" d="m1307.94 226.854-33.14 15.187-.73-1.581 33.14-15.187z" fill="#231f20" fill-rule="evenodd"/><g mask="url(#e)"><path d="m1737.29 1222.84-51.39-33.71 28.63-14.43z" fill="#231f20"/><path d="m1759.49 1150.71-261.48-106.41 334.95 88.88z" fill="#e5e7eb"/><path d="m1737.28 1222.84-22.75-48.14-216.52-130.4 261.47 106.41z" fill="#fff"/><path d="m1714.53 1174.7-74.82 43.22-141.7-173.62z" fill="#e5e7eb"/></g><path clip-rule="evenodd" d="m1737.7 1224-50.11-32.88-48.05 27.76-143.54-175.88 339.98 90.22-75.91 18.11zm-.83-2.31 22.03-71.6 71.03-16.95-329.9-87.54 139.86 171.37 47.74-27.58z" fill="#231f20" fill-rule="evenodd"/><path clip-rule="evenodd" d="m1716.08 1178.02-28.16 12.91-.62-1.35 28.17-12.9z" fill="#231f20" fill-rule="evenodd"/><g mask="url(#f)"><path d="m392.965 211.076-40.882-26.819 22.776-11.479z" fill="#231f20"/><path d="m410.626 153.689-208.023-84.6582 266.473 70.7102z" fill="#e5e7eb"/><path d="m392.961 211.076-18.105-38.298-172.255-103.7475 208.022 84.6585z" fill="#fff"/><path d="m374.857 172.775-59.523 34.385-112.732-138.1322z" fill="#e5e7eb"/></g><path clip-rule="evenodd" d="m393.294 212-39.872-26.158-38.226 22.083-114.196-139.9255 270.481 71.7735-60.393 14.412zm-.663-1.842 17.531-56.961 56.507-13.485-262.464-69.6455 111.269 136.3395 37.987-21.945z" fill="#231f20" fill-rule="evenodd"/><path clip-rule="evenodd" d="m376.095 175.418-22.41 10.269-.49-1.069 22.41-10.269z" fill="#231f20" fill-rule="evenodd"/><g mask="url(#g)"><path d="m1333.93 1552.05-86.88-56.99 48.4-24.39z" fill="#231f20"/><path d="m1371.46 1430.1-442.05-179.89 566.25 150.25z" fill="#f9d00b"/><path d="m1333.92 1552.05-38.47-81.38-366.045-220.46 442.045 179.9z" fill="#fff"/><path d="m1295.45 1470.67-126.49 73.07-239.554-293.54z" fill="#f9d00b"/></g><g clip-rule="evenodd" fill="#231f20" fill-rule="evenodd"><path d="m1334.63 1554-84.73-55.58-81.23 46.92-242.67-297.34 574.77 152.52-128.33 30.62zm-1.41-3.91 37.25-121.04 120.08-28.66-557.74-148 236.45 289.72 80.72-46.63z"/><path d="m1298.08 1476.26-47.62 21.83-1.04-2.28 47.62-21.82z"/></g></svg>