<svg viewBox="0 0 752.3 624" xmlns="http://www.w3.org/2000/svg" xmlns:xlink="http://www.w3.org/1999/xlink"><mask id="a" height="92" maskUnits="userSpaceOnUse" width="190" x="293.4" y="2"><path d="m293.4 2 190 45.8-41.7 9-12.6 37.2-28.2-16.8-27.2 14.3z" fill="#fff"/></mask><mask id="b" height="154" maskUnits="userSpaceOnUse" width="318" x="38.4" y="338.4"><path d="m38.4 338.4 318 76.7-69.7 15.1-21.1 62.2-47.2-28.1-45.5 23.9z" fill="#fff"/></mask><mask id="c" height="41.7" maskUnits="userSpaceOnUse" width="86" x="3.4" y="157.4"><path d="m3.4 157.4 86 20.7-18.9 4.1-5.7 16.8-12.8-7.6-12.3 6.5z" fill="#fff"/></mask><mask id="d" height="282.1" maskUnits="userSpaceOnUse" width="529.1" x="218.4" y="98.4"><path d="m218.4 98.4 529.1 140.4-116.1 27.7-35.1 114-78.5-51.5-75.7 43.7z" fill="#fff"/></mask><mask id="e" height="41.7" maskUnits="userSpaceOnUse" width="86" x="539.4" y="438.4"><path d="m539.4 438.4 86 20.7-18.9 4.1-5.7 16.8-12.8-7.6-12.3 6.5-36.4-40.5z" fill="#fff"/></mask><mask id="f" height="82" maskUnits="userSpaceOnUse" width="169.3" x="356.4" y="510.4"><path d="m356.4 510.4 169.3 40.8-37.1 8.1-11.2 33.1-25.1-15-24.2 12.7-71.6-79.7z" fill="#fff"/></mask><mask id="g" height="55" maskUnits="userSpaceOnUse" width="113.6" x="69.4" y="50.4"><path d="m69.4 50.4 113.5 27.4-24.9 5.4-7.5 22.2-16.8-10-16.2 8.5-48-53.5z" fill="#fff"/></mask><g fill="#ecfeff" fill-rule="evenodd"><path d="m211.3 285.8c-8.6-7.1-15.7-15.9-20.9-25.9-13.5 9.4-30 15-47.7 15-46 0-83.3-37.3-83.3-83.3s18.9-61 46.3-74.7c0-30 24.4-54.3 54.3-54.3s12.2 1.1 17.8 3c12.3-30.6 42.3-52.3 77.3-52.3s77 31.3 82.5 71.9c8.8-3.4 18.3-5.3 28.3-5.3 34.4 0 63.7 22.1 74.4 52.9-43.3 5.8-79.2 35.4-94 75.2-5.8-.8-11.8-1.3-17.8-1.3-53 0-98.5 32.6-117.4 78.9z"/><path d="m469.3 529.7v1c0 51.5-41.8 93.3-93.3 93.3s-43.3-8.1-59.5-21.5c-16.2 13.4-36.9 21.5-59.5 21.5s-46.3-9.2-62.9-24.4c-14.2 15-34.4 24.4-56.7 24.4-43.1 0-78.1-35-78.1-78.1s28.7-71.5 66.2-77.2c-.7-4.1-1-8.4-1-12.7 0-43.1 35-78.1 78.1-78.1s4.9.1 7.4.4c8 21.1 21.4 39.6 38.5 53.6.4 46.4 38.2 84 84.7 84s26.5-3.2 37.9-8.9c19 16.4 43.8 26.3 70.8 26.3s18.7-1.2 27.4-3.5z"/><path d="m360.8 232c8-45.4 47.7-80 95.4-80s82.2 30.2 93.4 71.2c2.2-.3 4.4-.4 6.7-.4 29.2 0 52.8 23.7 52.8 52.9s-.5 8.3-1.4 12.2c39.6 8.7 69.3 44 69.3 86.2s-39.5 88.2-88.2 88.2-44-8.9-59.8-23.3c-6.8 42-43.2 74.1-87.1 74.1s-51.7-12.4-67.9-31.9c-11.1 9.1-25.3 14.5-40.8 14.5-35.6 0-64.5-28.9-64.5-64.6s.2-6 .6-8.9c-28.5-19.2-47.2-51.7-47.2-88.5 0-58.8 47.8-106.6 106.6-106.6s22 1.7 32.1 4.9z"/></g><g mask="url(#a)"><path d="m429.1 94-29.1-17.4 16.2-7.4z" fill="#231f20"/><path d="m441.7 56.9-148.3-54.9 190 45.8-41.7 9z" fill="#f2f2f2"/><path d="m429.1 94-12.9-24.8-122.8-67.2 148.3 54.8z" fill="#fff"/><path d="m416.2 69.2-42.4 22.3-80.4-89.5z" fill="#f2f2f2"/></g><path d="m293.4 2 190 45.8-41.7 9-12.6 37.2-28.2-16.8-27.2 14.3z" fill="none" stroke="#231f20" stroke-miterlimit="10" stroke-width="2.3"/><path d="m400.9 77.2 16-6.7" fill="none" stroke="#231f20" stroke-miterlimit="10" stroke-width="2.3"/><g mask="url(#b)"><path d="m265.5 492.4-48.8-29.1 27.2-12.4z" fill="#231f20"/><path d="m286.6 430.2-248.2-91.8 318 76.7-69.7 15.1z" fill="#f2f2f2"/><path d="m265.5 492.4-21.6-41.5-205.6-112.5 248.2 91.8-21.1 62.2z" fill="#fff"/><path d="m243.9 450.9-71 37.3-134.5-149.8z" fill="#f2f2f2"/></g><path d="m38.4 338.4 318 76.7-69.7 15.1-21.1 62.2-47.2-28.1-45.5 23.9z" fill="none" stroke="#231f20" stroke-miterlimit="10" stroke-width="2.3"/><path d="m218.4 464.3 26.7-11.1" fill="none" stroke="#231f20" stroke-miterlimit="10" stroke-width="2.3"/><g mask="url(#c)"><path d="m64.8 199-13.2-7.9 7.4-3.4 5.8 11.2z" fill="#231f20"/><path d="m70.5 182.2-67.1-24.8 86 20.7z" fill="#f9d00b"/><path d="m64.8 199-5.8-11.2-55.6-30.4 67.1 24.8z" fill="#fff"/><path d="m59 187.8-19.2 10.1-36.4-40.5z" fill="#f9d00b"/></g><path d="m3.4 157.4 86 20.7-18.9 4.1-5.7 16.8-12.8-7.6-12.3 6.5z" fill="none" stroke="#231f20" stroke-miterlimit="10" stroke-width="2.3"/><path d="m52.1 191.4 7.2-3" fill="none" stroke="#231f20" stroke-miterlimit="10" stroke-width="2.3"/><g mask="url(#d)"><path d="m596.4 380.4-81.2-53.3 45.2-22.8 36 76z" fill="#231f20"/><path d="m631.4 266.5-413-168.1 529.1 140.4z" fill="#f9d00b"/><path d="m596.4 380.4-36-76-342-206 413.1 168.1-35.1 114z" fill="#fff"/><path d="m560.4 304.4-118.2 68.3-223.8-274.3z" fill="#f9d00b"/></g><path d="m218.4 98.4 529.1 140.4-116.1 27.7-35.1 114-78.5-51.5-75.7 43.7z" fill="none" stroke="#231f20" stroke-miterlimit="10" stroke-width="2.3"/><path d="m517.9 328.9 44.5-20.4" fill="none" stroke="#231f20" stroke-miterlimit="10" stroke-width="2.3"/><g mask="url(#e)"><path d="m600.8 480-13.2-7.9 7.4-3.4 5.8 11.2z" fill="#231f20"/><path d="m606.5 463.2-67.1-24.8 86 20.7z" fill="#f2f2f2"/><path d="m600.8 480-5.8-11.2-55.6-30.4 67.1 24.8z" fill="#fff"/><path d="m595 468.8-19.2 10.1-36.4-40.5z" fill="#f2f2f2"/></g><path d="m539.4 438.4 86 20.7-18.9 4.1-5.7 16.8-12.8-7.6-12.3 6.5-36.4-40.5z" fill="none" stroke="#231f20" stroke-miterlimit="10" stroke-width="2.3"/><path d="m588.1 472.4 7.2-3" fill="none" stroke="#231f20" stroke-miterlimit="10" stroke-width="2.3"/><g mask="url(#f)"><path d="m477.3 592.4-26-15.5 14.5-6.6z" fill="#231f20"/><path d="m488.5 559.2-132.1-48.9 169.3 40.8-37.1 8.1z" fill="#f9d00b"/><path d="m477.3 592.4-11.5-22.1-109.4-59.9 132.2 48.9-11.2 33.1z" fill="#fff"/><path d="m465.8 570.2-37.8 19.8-71.6-79.7z" fill="#f9d00b"/></g><path d="m356.4 510.4 169.3 40.8-37.1 8.1-11.2 33.1-25.1-15-24.2 12.7-71.6-79.7z" fill="none" stroke="#231f20" stroke-miterlimit="10" stroke-width="2.3"/><path d="m452.2 577.4 14.2-5.9" fill="none" stroke="#231f20" stroke-miterlimit="10" stroke-width="2.3"/><g mask="url(#g)"><path d="m150.5 105.4-17.4-10.4 9.7-4.4z" fill="#231f20"/><path d="m158 83.1-88.6-32.8 113.5 27.4z" fill="#f2f2f2"/><path d="m150.5 105.4-7.7-14.8-73.4-40.2 88.6 32.8z" fill="#fff"/><path d="m142.8 90.5-25.4 13.3-48-53.5z" fill="#f2f2f2"/></g><path d="m69.4 50.4 113.5 27.4-24.9 5.4-7.5 22.2-16.8-10-16.2 8.5-48-53.5z" fill="none" stroke="#231f20" stroke-miterlimit="10" stroke-width="2.3"/><path d="m133.7 95.3 9.5-4" fill="none" stroke="#231f20" stroke-miterlimit="10" stroke-width="2.3"/></svg>