<svg width="1920" height="1899" viewBox="0 0 1920 1899" fill="none" xmlns="http://www.w3.org/2000/svg">
<path fill-rule="evenodd" clip-rule="evenodd" d="M472.272 847.034C445.588 824.959 423.363 797.643 407.32 766.645C365.297 795.997 314.198 813.297 259.107 813.297C116.137 813.297 0.0791016 697.212 0.0791016 554.196C0.0791016 452.594 58.692 364.534 143.989 322.108C144.067 228.881 219.738 153.187 312.94 153.187C332.347 153.187 350.971 156.475 368.344 162.502C406.689 67.2399 499.889 0 608.741 0C739.662 0 848.037 97.3762 865.345 223.632C892.657 213.065 922.316 207.272 953.381 207.272C1060.35 207.272 1151.44 276.077 1184.62 371.808C1049.87 389.968 938.516 481.943 892.42 605.7C874.344 603.117 855.876 601.786 837.095 601.786C672.29 601.786 531.049 703.246 472.272 847.034Z" fill="#ECFEFF"/>
<path fill-rule="evenodd" clip-rule="evenodd" d="M1274.3 1605.22V1608.2C1274.3 1768.27 1144.32 1898.3 984.279 1898.3C914.007 1898.3 849.524 1873.25 799.285 1831.53C749.046 1873.25 684.564 1898.3 614.292 1898.3C539.011 1898.3 470.382 1869.57 418.812 1822.45C374.599 1869.18 311.996 1898.3 242.661 1898.3C108.69 1898.3 0 1789.49 0 1655.57C0 1534.08 89.3657 1433.34 205.88 1415.56C203.767 1402.73 202.672 1389.58 202.672 1376.19C202.672 1242.26 311.446 1133.46 445.333 1133.46C453.002 1133.46 460.671 1133.85 468.183 1134.56C492.912 1200.23 534.621 1257.53 587.991 1301.13C589.165 1445.39 706.703 1562.17 851.246 1562.17C893.582 1562.17 933.648 1552.16 969.097 1534.39C1028.1 1585.42 1105.1 1616.26 1189.14 1616.26C1218.57 1616.26 1247.13 1612.51 1274.28 1605.38L1274.3 1605.22Z" fill="#ECFEFF"/>
<path fill-rule="evenodd" clip-rule="evenodd" d="M936.88 679.77C961.843 538.559 1085.25 431.17 1233.55 431.17C1372.14 431.17 1488.97 524.945 1524.03 652.538C1530.84 651.677 1537.73 651.207 1544.77 651.207C1635.39 651.207 1709.02 724.865 1709.02 815.508C1709.02 828.58 1707.46 841.34 1704.56 853.55C1827.74 880.556 1920 990.298 1920 1121.49C1920 1272.87 1797.14 1395.78 1645.79 1395.78C1574.18 1395.78 1508.92 1368.22 1460.01 1323.22C1438.96 1453.7 1325.65 1553.5 1189.32 1553.5C1104.5 1553.5 1028.59 1514.83 978.275 1454.25C943.686 1482.51 899.551 1499.41 851.504 1499.41C740.775 1499.41 650.852 1409.47 650.852 1298.7C650.852 1289.31 651.478 1280.07 652.73 1270.99C564.224 1211.43 505.925 1110.37 505.925 995.783C505.925 812.851 654.375 664.362 837.173 664.362C871.918 664.362 905.49 669.763 936.948 679.705L936.88 679.77Z" fill="#ECFEFF"/>
<mask id="mask0_2010_7142" style="mask-type:luminance" maskUnits="userSpaceOnUse" x="556" y="292" width="1259" height="671">
<path d="M556.268 292.399L1814.11 626.172L1538.2 692.013L1454.83 962.901L1268.28 840.517L1088.4 944.429L556.268 292.399Z" fill="white"/>
</mask>
<g mask="url(#mask0_2010_7142)">
<path d="M1454.83 962.901L1261.86 836.308L1369.37 782.12L1454.83 962.901Z" fill="#231F20"/>
<path d="M1538.2 692.015L556.268 292.4L1814.11 626.174L1538.2 692.015Z" fill="#F9D00B"/>
<path d="M1454.82 962.901L1369.36 782.12L556.257 292.399L1538.19 692.013L1454.82 962.901Z" fill="white"/>
<path d="M1369.36 782.113L1088.39 944.422L556.26 292.392L1369.36 782.113Z" fill="#F9D00B"/>
</g>
<path fill-rule="evenodd" clip-rule="evenodd" d="M1456.39 967.24L1268.18 843.768L1087.74 948.006L548.698 287.513L1825.46 626.307L1540.38 694.337L1456.39 967.24ZM1453.26 958.547L1536.01 689.674L1802.74 626.022L563.825 297.269L1089.05 940.837L1268.36 837.251L1453.26 958.547Z" fill="#231F20"/>
<path fill-rule="evenodd" clip-rule="evenodd" d="M1375.2 794.559L1269.42 843.034L1267.11 837.988L1372.89 789.513L1375.2 794.559Z" fill="#231F20"/>
<mask id="mask1_2010_7142" style="mask-type:luminance" maskUnits="userSpaceOnUse" x="2" y="424" width="378" height="202">
<path d="M2.27147 424.462L379.774 524.634L296.97 544.394L271.949 625.693L215.96 588.963L161.976 620.149L2.27147 424.462Z" fill="white"/>
</mask>
<g mask="url(#mask1_2010_7142)">
<path d="M271.949 625.693L214.033 587.7L246.3 571.437L271.949 625.693Z" fill="#231F20"/>
<path d="M296.97 544.395L2.27147 424.462L379.774 524.634L296.97 544.395Z" fill="#F9D00B"/>
<path d="M271.945 625.693L246.296 571.437L2.26804 424.462L296.966 544.394L271.945 625.693Z" fill="white"/>
<path d="M246.297 571.434L161.973 620.146L2.26881 424.459L246.297 571.434Z" fill="#F9D00B"/>
</g>
<path fill-rule="evenodd" clip-rule="evenodd" d="M272.417 627L215.931 589.943L161.777 621.227L3.05176e-05 423L383.182 524.679L297.624 545.096L272.417 627ZM271.477 624.391L296.312 543.697L376.364 524.593L4.53995 425.928L162.172 619.076L215.986 587.988L271.477 624.391Z" fill="#231F20"/>
<path fill-rule="evenodd" clip-rule="evenodd" d="M248.051 575.175L216.304 589.724L215.61 588.209L247.357 573.661L248.051 575.175Z" fill="#231F20"/>
<mask id="mask2_2010_7142" style="mask-type:luminance" maskUnits="userSpaceOnUse" x="187" y="908" width="758" height="405">
<path d="M187.555 908.931L944.411 1109.77L778.396 1149.38L728.231 1312.38L615.979 1238.74L507.747 1301.26L187.555 908.931Z" fill="white"/>
</mask>
<g mask="url(#mask2_2010_7142)">
<path d="M728.233 1312.38L612.117 1236.21L676.809 1203.6L728.233 1312.38Z" fill="#231F20"/>
<path d="M778.396 1149.38L187.555 908.932L944.411 1109.77L778.396 1149.38Z" fill="#E5E7EB"/>
<path d="M728.225 1312.38L676.801 1203.6L187.548 908.931L778.39 1149.38L728.225 1312.38Z" fill="white"/>
<path d="M676.802 1203.6L507.741 1301.26L187.55 908.925L676.802 1203.6Z" fill="#E5E7EB"/>
</g>
<path fill-rule="evenodd" clip-rule="evenodd" d="M729.17 1315L615.919 1240.71L507.348 1303.43L183 906L951.242 1109.86L779.708 1150.79L729.17 1315ZM727.285 1309.77L777.077 1147.99L937.573 1109.68L192.102 911.871L508.138 1299.11L616.031 1236.78L727.285 1309.77Z" fill="#231F20"/>
<path fill-rule="evenodd" clip-rule="evenodd" d="M680.318 1211.1L616.669 1240.26L615.277 1237.23L678.926 1208.06L680.318 1211.1Z" fill="#231F20"/>
<mask id="mask3_2010_7142" style="mask-type:luminance" maskUnits="userSpaceOnUse" x="1051" y="69" width="395" height="211">
<path d="M1051.37 69.5261L1445.44 174.095L1359 194.722L1332.88 279.59L1274.44 241.248L1218.09 273.803L1051.37 69.5261Z" fill="white"/>
</mask>
<g mask="url(#mask3_2010_7142)">
<path d="M1332.89 279.59L1272.43 239.929L1306.11 222.952L1332.89 279.59Z" fill="#231F20"/>
<path d="M1359 194.723L1051.37 69.5268L1445.44 174.096L1359 194.723Z" fill="#E5E7EB"/>
<path d="M1332.88 279.59L1306.11 222.952L1051.37 69.5261L1359 194.722L1332.88 279.59Z" fill="white"/>
<path d="M1306.11 222.95L1218.08 273.8L1051.37 69.5234L1306.11 222.95Z" fill="#E5E7EB"/>
</g>
<path fill-rule="evenodd" clip-rule="evenodd" d="M1333.37 280.954L1274.41 242.271L1217.88 274.928L1049 67.9998L1449 174.142L1359.69 195.455L1333.37 280.954ZM1332.39 278.23L1358.32 193.994L1441.88 174.052L1053.74 71.0565L1218.29 272.682L1274.47 240.229L1332.39 278.23Z" fill="#231F20"/>
<path fill-rule="evenodd" clip-rule="evenodd" d="M1307.94 226.854L1274.8 242.041L1274.07 240.46L1307.21 225.273L1307.94 226.854Z" fill="#231F20"/>
<mask id="mask4_2010_7142" style="mask-type:luminance" maskUnits="userSpaceOnUse" x="1498" y="1044" width="335" height="179">
<path d="M1498.01 1044.3L1832.96 1133.18L1759.49 1150.71L1737.29 1222.84L1687.61 1190.25L1639.71 1217.92L1498.01 1044.3Z" fill="white"/>
</mask>
<g mask="url(#mask4_2010_7142)">
<path d="M1737.29 1222.84L1685.9 1189.13L1714.53 1174.7L1737.29 1222.84Z" fill="#231F20"/>
<path d="M1759.49 1150.71L1498.01 1044.3L1832.96 1133.18L1759.49 1150.71Z" fill="#E5E7EB"/>
<path d="M1737.28 1222.84L1714.53 1174.7L1498.01 1044.3L1759.48 1150.71L1737.28 1222.84Z" fill="white"/>
<path d="M1714.53 1174.7L1639.71 1217.92L1498.01 1044.3L1714.53 1174.7Z" fill="#E5E7EB"/>
</g>
<path fill-rule="evenodd" clip-rule="evenodd" d="M1737.7 1224L1687.59 1191.12L1639.54 1218.88L1496 1043L1835.98 1133.22L1760.07 1151.33L1737.7 1224ZM1736.87 1221.69L1758.9 1150.09L1829.93 1133.14L1500.03 1045.6L1639.89 1216.97L1687.63 1189.39L1736.87 1221.69Z" fill="#231F20"/>
<path fill-rule="evenodd" clip-rule="evenodd" d="M1716.08 1178.02L1687.92 1190.93L1687.3 1189.58L1715.47 1176.68L1716.08 1178.02Z" fill="#231F20"/>
<mask id="mask5_2010_7142" style="mask-type:luminance" maskUnits="userSpaceOnUse" x="202" y="69" width="268" height="143">
<path d="M202.603 69.0305L469.076 139.74L410.626 153.689L392.964 211.076L353.442 185.149L315.336 207.163L202.603 69.0305Z" fill="white"/>
</mask>
<g mask="url(#mask5_2010_7142)">
<path d="M392.965 211.076L352.083 184.257L374.859 172.778L392.965 211.076Z" fill="#231F20"/>
<path d="M410.626 153.689L202.603 69.0308L469.076 139.741L410.626 153.689Z" fill="#E5E7EB"/>
<path d="M392.961 211.076L374.856 172.778L202.601 69.0305L410.623 153.689L392.961 211.076Z" fill="white"/>
<path d="M374.857 172.775L315.334 207.16L202.602 69.0278L374.857 172.775Z" fill="#E5E7EB"/>
</g>
<path fill-rule="evenodd" clip-rule="evenodd" d="M393.294 212L353.422 185.842L315.196 207.925L201 67.9995L471.481 139.773L411.088 154.185L393.294 212ZM392.631 210.158L410.162 153.197L466.669 139.712L204.205 70.0665L315.474 206.406L353.461 184.461L392.631 210.158Z" fill="#231F20"/>
<path fill-rule="evenodd" clip-rule="evenodd" d="M376.095 175.418L353.685 185.687L353.195 184.618L375.605 174.349L376.095 175.418Z" fill="#231F20"/>
<mask id="mask6_2010_7142" style="mask-type:luminance" maskUnits="userSpaceOnUse" x="929" y="1250" width="567" height="303">
<path d="M929.41 1250.21L1495.66 1400.46L1371.46 1430.11L1333.93 1552.05L1249.94 1496.96L1168.97 1543.74L929.41 1250.21Z" fill="white"/>
</mask>
<g mask="url(#mask6_2010_7142)">
<path d="M1333.93 1552.05L1247.05 1495.06L1295.45 1470.67L1333.93 1552.05Z" fill="#231F20"/>
<path d="M1371.46 1430.1L929.41 1250.21L1495.66 1400.46L1371.46 1430.1Z" fill="#F9D00B"/>
<path d="M1333.92 1552.05L1295.45 1470.67L929.405 1250.21L1371.45 1430.11L1333.92 1552.05Z" fill="white"/>
<path d="M1295.45 1470.67L1168.96 1543.74L929.406 1250.2L1295.45 1470.67Z" fill="#F9D00B"/>
</g>
<path fill-rule="evenodd" clip-rule="evenodd" d="M1334.63 1554L1249.9 1498.42L1168.67 1545.34L926 1248L1500.77 1400.52L1372.44 1431.14L1334.63 1554ZM1333.22 1550.09L1370.47 1429.05L1490.55 1400.39L932.81 1252.39L1169.26 1542.11L1249.98 1495.48L1333.22 1550.09Z" fill="#231F20"/>
<path fill-rule="evenodd" clip-rule="evenodd" d="M1298.08 1476.26L1250.46 1498.09L1249.42 1495.81L1297.04 1473.99L1298.08 1476.26Z" fill="#231F20"/>
</svg>
