<svg xmlns="http://www.w3.org/2000/svg" viewBox="0 0 1193.7 213.6"><path d="M394.5,140h-14.6l-12.6-25.8h-9.1v25.8h-12.6v-64.6h25.3c6.4,0,11.5,1.9,15.3,5.7s5.7,8.5,5.7,14-1.1,7.9-3.4,10.8c-2.2,2.9-5,5-8.4,6.2l14.4,27.9ZM376.7,101.3c1.7-1.6,2.5-3.6,2.5-6.2s-.9-4.6-2.5-6.2c-1.7-1.6-3.9-2.4-6.6-2.4h-11.9v17h11.9c2.8.2,5-.6,6.6-2.2ZM452,140h-42.5v-64.6h42.5v11.2h-29.9v15.1h25.5v11.2h-25.5v15.7h29.9v11.4ZM515.7,104.3v9.5c0,.5,0,1.5,0,3s-.2,2.6-.3,3.2c0,.6-.3,1.5-.5,2.8s-.4,2.3-.8,3-.7,1.6-1.2,2.7c-.5,1-1,1.9-1.6,2.8s-1.3,1.6-2.1,2.4c-4.1,4.1-9.8,6.2-17,6.2h-23.3v-64.6h23.3c7.2,0,12.9,2.1,17,6.2.8.8,1.5,1.6,2.1,2.4s1.2,1.7,1.6,2.7.8,1.9,1.2,2.6c.3.7.6,1.7.8,2.9.2,1.2.3,2.2.5,2.7,0,.6.2,1.6.3,3.1s0,2.5,0,2.9v3.5ZM503.1,107.4c0-5.1-.2-8.9-.5-11.2s-1.1-4.2-2.2-5.6c-2.2-2.7-5.3-4-9.4-4h-9.5v42.1h9.5c4.1,0,7.2-1.3,9.4-4,1.2-1.4,1.9-3.3,2.2-5.8.4-2.4.5-6.2.5-11.5ZM545.7,140h-12.6v-64.6h12.6v64.6ZM614.2,140h-14.6l-12.6-25.8h-9.1v25.8h-12.6v-64.6h25.3c6.4,0,11.5,1.9,15.3,5.7s5.7,8.5,5.7,14-1.1,7.9-3.3,10.8c-2.2,2.9-5,5-8.4,6.2l14.3,27.9ZM596.4,101.3c1.7-1.6,2.5-3.6,2.5-6.2s-.8-4.6-2.5-6.2-3.9-2.4-6.6-2.4h-11.9v17h11.9c2.7.2,4.9-.6,6.6-2.2ZM671.7,140h-42.5v-64.6h42.5v11.2h-29.9v15.1h25.5v11.2h-25.5v15.7h29.9v11.4ZM733.9,120.1c-1.1,6.5-3.8,11.5-8,15.1s-9.5,5.4-15.8,5.4-12.7-2.4-17.4-7.1c-2.8-2.8-4.5-6-5.3-9.7-.7-3.6-1.1-9-1.1-16.1s.4-12.4,1.1-16.1c.7-3.7,2.5-6.9,5.3-9.7,4.7-4.7,10.5-7.1,17.4-7.1s11.5,1.8,15.8,5.3c4.2,3.6,6.9,8.6,8,15.1h-12.8c-1.5-6.1-5.1-9.2-10.9-9.2s-6.2,1.1-8.1,3.3c-1.3,1.4-2.2,3.2-2.6,5.5-.4,2.3-.6,6.5-.6,12.7s.2,10.5.6,12.7,1.2,4.1,2.6,5.5c1.9,2.2,4.6,3.4,8.1,3.4,5.7,0,9.4-3.1,10.9-9.2l12.8.2h0ZM789,86.6h-16.9v53.3h-12.6v-53.3h-16.9v-11.2h46.3v11.2h.1ZM773.3,145.4l-4,13.2h-11l6.3-13.2h8.7ZM816.4,140h-12.6v-64.6h12.6v64.6ZM881.4,99.6c0,1.7,0,4.4,0,8.1s0,6.4,0,8.1-.3,3.8-.6,6.3c-.4,2.5-1,4.6-2,6.4s-2.2,3.4-3.8,5c-4.7,4.7-10.5,7.1-17.4,7.1s-12.8-2.4-17.5-7.1c-1.6-1.6-2.8-3.2-3.7-4.9s-1.5-3.9-1.9-6.5-.6-4.7-.6-6.3c0-1.6,0-4.3,0-8.1s0-6.5,0-8.1.3-3.7.6-6.3c.4-2.6,1-4.8,1.9-6.5s2.1-3.4,3.7-4.9c4.7-4.7,10.5-7.1,17.5-7.1s12.7,2.4,17.4,7.1c1.6,1.6,2.8,3.2,3.8,5,.9,1.8,1.6,3.9,2,6.4.3,2.5.5,4.6.6,6.3ZM868.2,120.2c.4-2.3.6-6.5.6-12.6s-.2-10.2-.6-12.6-1.3-4.2-2.5-5.6c-2-2.3-4.7-3.4-8.1-3.4s-6.2,1.2-8.2,3.4c-1.3,1.4-2.1,3.2-2.5,5.5-.4,2.3-.6,6.5-.6,12.6s.2,10.3.6,12.6c.4,2.3,1.2,4.1,2.5,5.5,2,2.3,4.7,3.4,8.2,3.4s6.1-1.1,8.1-3.4c1.3-1.2,2.1-3,2.5-5.4ZM948.3,140h-11.2l-25.6-39.6v39.6h-12.6v-64.6h11.2l25.6,39.5v-39.5h12.6v64.6ZM1010.4,140h-42.5v-64.6h42.5v11.2h-29.9v15.1h25.5v11.2h-25.5v15.7h29.9v11.4h0ZM1077.1,140h-13.2l-3.8-11.4h-22.9l-3.9,11.4h-13.2l23.5-64.6h9.9l23.6,64.6ZM1056.8,117.9l-7.9-23.5-8.2,23.5h16.1ZM1128.2,140h-42.4v-10.2l27.6-43.2h-26.4v-11.2h41.2v10l-27.7,43.3h27.7v11.3h0ZM1193.7,140h-13.1l-3.8-11.4h-22.9l-3.9,11.4h-13.2l23.5-64.6h9.9l23.5,64.6ZM1180,55.6c-.2,4.7-1.7,8.1-4.4,10.3-2.7,2.2-6.2,3.3-10.4,3.3s-7.7-1.1-10.5-3.3c-2.8-2.2-4.2-5.7-4.4-10.3h7.9c.4,3.6,2.8,5.4,7,5.4s6.6-1.8,7-5.4c0,0,7.8,0,7.8,0ZM1173.4,117.9l-7.9-23.5-8.2,23.5h16.1Z"/><path d="M192.7,0l14,2,59,104.7-59,104.7-14.9,2.2,60.4-106.9L192.7,0Z" fill="#010101"/><polygon points="13.5 106.8 73.9 213.6 59 211.5 0 106.8 59 2.1 72.9 0 13.5 106.8" fill="#010101"/><polygon points="106.1 171 144.8 144.2 123.2 132.7 106.1 171"/><polygon points="89.3 113.7 286.4 29.2 34 99.8 89.3 113.7" fill="#fed210"/><polygon points="106.1 171 123.2 132.7 286.4 29.2 89.3 113.7 106.1 171" fill="#fff"/><polygon points="123.2 132.7 123.2 132.7 123.2 132.7 179.6 167 286.4 29.2 123.2 132.7" fill="#fed210"/><polygon id="SVGID" points="286.5 29.2 34 99.8 89.4 113.7 106.1 171 143.5 145.1 179.6 167 286.5 29.2" fill="none" stroke="#000" stroke-miterlimit="10" stroke-width="3.6"/><line x1="143.5" y1="145.1" x2="122.3" y2="134.8" fill="none" stroke="#000" stroke-miterlimit="10" stroke-width="3.6"/></svg>