<svg viewBox="0 0 1193.7 213.6" xmlns="http://www.w3.org/2000/svg"><path d="m394.5 140h-14.6l-12.6-25.8h-9.1v25.8h-12.6v-64.6h25.3c6.4 0 11.5 1.9 15.3 5.7s5.7 8.5 5.7 14-1.1 7.9-3.4 10.8c-2.2 2.9-5 5-8.4 6.2zm-17.8-38.7c1.7-1.6 2.5-3.6 2.5-6.2s-.9-4.6-2.5-6.2c-1.7-1.6-3.9-2.4-6.6-2.4h-11.9v17h11.9c2.8.2 5-.6 6.6-2.2zm75.3 38.7h-42.5v-64.6h42.5v11.2h-29.9v15.1h25.5v11.2h-25.5v15.7h29.9zm63.7-35.7v9.5 3s-.2 2.6-.3 3.2c0 .6-.3 1.5-.5 2.8s-.4 2.3-.8 3-.7 1.6-1.2 2.7c-.5 1-1 1.9-1.6 2.8s-1.3 1.6-2.1 2.4c-4.1 4.1-9.8 6.2-17 6.2h-23.3v-64.6h23.3c7.2 0 12.9 2.1 17 6.2.8.8 1.5 1.6 2.1 2.4s1.2 1.7 1.6 2.7.8 1.9 1.2 2.6c.3.7.6 1.7.8 2.9s.3 2.2.5 2.7c0 .6.2 1.6.3 3.1s0 2.5 0 2.9zm-12.6 3.1c0-5.1-.2-8.9-.5-11.2s-1.1-4.2-2.2-5.6c-2.2-2.7-5.3-4-9.4-4h-9.5v42.1h9.5c4.1 0 7.2-1.3 9.4-4 1.2-1.4 1.9-3.3 2.2-5.8.4-2.4.5-6.2.5-11.5zm42.6 32.6h-12.6v-64.6h12.6zm68.5 0h-14.6l-12.6-25.8h-9.1v25.8h-12.6v-64.6h25.3c6.4 0 11.5 1.9 15.3 5.7s5.7 8.5 5.7 14-1.1 7.9-3.3 10.8-5 5-8.4 6.2zm-17.8-38.7c1.7-1.6 2.5-3.6 2.5-6.2s-.8-4.6-2.5-6.2-3.9-2.4-6.6-2.4h-11.9v17h11.9c2.7.2 4.9-.6 6.6-2.2zm75.3 38.7h-42.5v-64.6h42.5v11.2h-29.9v15.1h25.5v11.2h-25.5v15.7h29.9zm62.2-19.9c-1.1 6.5-3.8 11.5-8 15.1s-9.5 5.4-15.8 5.4-12.7-2.4-17.4-7.1c-2.8-2.8-4.5-6-5.3-9.7-.7-3.6-1.1-9-1.1-16.1s.4-12.4 1.1-16.1 2.5-6.9 5.3-9.7c4.7-4.7 10.5-7.1 17.4-7.1s11.5 1.8 15.8 5.3c4.2 3.6 6.9 8.6 8 15.1h-12.8c-1.5-6.1-5.1-9.2-10.9-9.2s-6.2 1.1-8.1 3.3c-1.3 1.4-2.2 3.2-2.6 5.5s-.6 6.5-.6 12.7.2 10.5.6 12.7 1.2 4.1 2.6 5.5c1.9 2.2 4.6 3.4 8.1 3.4 5.7 0 9.4-3.1 10.9-9.2zm55.1-33.5h-16.9v53.3h-12.6v-53.3h-16.9v-11.2h46.3v11.2zm-15.7 58.8-4 13.2h-11l6.3-13.2zm43.1-5.4h-12.6v-64.6h12.6zm65-40.4v8.1s0 6.4 0 8.1-.3 3.8-.6 6.3c-.4 2.5-1 4.6-2 6.4s-2.2 3.4-3.8 5c-4.7 4.7-10.5 7.1-17.4 7.1s-12.8-2.4-17.5-7.1c-1.6-1.6-2.8-3.2-3.7-4.9s-1.5-3.9-1.9-6.5-.6-4.7-.6-6.3 0-4.3 0-8.1 0-6.5 0-8.1.3-3.7.6-6.3c.4-2.6 1-4.8 1.9-6.5s2.1-3.4 3.7-4.9c4.7-4.7 10.5-7.1 17.5-7.1s12.7 2.4 17.4 7.1c1.6 1.6 2.8 3.2 3.8 5 .9 1.8 1.6 3.9 2 6.4.3 2.5.5 4.6.6 6.3zm-13.2 20.6c.4-2.3.6-6.5.6-12.6s-.2-10.2-.6-12.6-1.3-4.2-2.5-5.6c-2-2.3-4.7-3.4-8.1-3.4s-6.2 1.2-8.2 3.4c-1.3 1.4-2.1 3.2-2.5 5.5s-.6 6.5-.6 12.6.2 10.3.6 12.6 1.2 4.1 2.5 5.5c2 2.3 4.7 3.4 8.2 3.4s6.1-1.1 8.1-3.4c1.3-1.2 2.1-3 2.5-5.4zm80.1 19.8h-11.2l-25.6-39.6v39.6h-12.6v-64.6h11.2l25.6 39.5v-39.5h12.6zm62.1 0h-42.5v-64.6h42.5v11.2h-29.9v15.1h25.5v11.2h-25.5v15.7h29.9zm66.7 0h-13.2l-3.8-11.4h-22.9l-3.9 11.4h-13.2l23.5-64.6h9.9zm-20.3-22.1-7.9-23.5-8.2 23.5zm71.4 22.1h-42.4v-10.2l27.6-43.2h-26.4v-11.2h41.2v10l-27.7 43.3h27.7zm65.5 0h-13.1l-3.8-11.4h-22.9l-3.9 11.4h-13.2l23.5-64.6h9.9zm-13.7-84.4c-.2 4.7-1.7 8.1-4.4 10.3s-6.2 3.3-10.4 3.3-7.7-1.1-10.5-3.3-4.2-5.7-4.4-10.3h7.9c.4 3.6 2.8 5.4 7 5.4s6.6-1.8 7-5.4zm-6.6 62.3-7.9-23.5-8.2 23.5z"/><path d="m192.7 0 14 2 59 104.7-59 104.7-14.9 2.2 60.4-106.9z" fill="#010101"/><path d="m13.5 106.8 60.4 106.8-14.9-2.1-59-104.7 59-104.7 13.9-2.1z" fill="#010101"/><path d="m106.1 171 38.7-26.8-21.6-11.5z"/><path d="m89.3 113.7 197.1-84.5-252.4 70.6z" fill="#fed210"/><path d="m106.1 171 17.1-38.3 163.2-103.5-197.1 84.5z" fill="#fff"/><path d="m123.2 132.7 56.4 34.3 106.8-137.8z" fill="#fed210"/><g fill="none" stroke="#000" stroke-miterlimit="10" stroke-width="3.6"><path d="m286.5 29.2-252.5 70.6 55.4 13.9 16.7 57.3 37.4-25.9 36.1 21.9z"/><path d="m143.5 145.1-21.2-10.3"/></g></svg>