<svg width="389" height="285" viewBox="0 0 389 285" fill="none" xmlns="http://www.w3.org/2000/svg">
<path d="M256.951 4.13928e-05L275.563 2.73871L354.245 142.333L275.563 281.928L255.664 284.856L336.175 142.333L256.951 4.13928e-05Z" fill="#100F0D"/>
<path d="M18.0713 142.329L98.5817 284.796L78.6828 281.924L0 142.329L78.6828 2.73486L97.1771 0.113511L18.0713 142.329Z" fill="#100F0D"/>
<mask id="mask0_119_7857" style="mask-type:luminance" maskUnits="userSpaceOnUse" x="45" y="38" width="337" height="190">
<path d="M381.963 38.8921L45.3164 132.993L119.159 151.556L141.472 227.928L191.402 193.424L239.543 222.72L381.963 38.8921Z" fill="white"/>
</mask>
<g mask="url(#mask0_119_7857)">
<path d="M141.472 227.928L193.12 192.237L164.345 176.96L141.472 227.928Z" fill="#231F20"/>
<path d="M119.159 151.556L381.963 38.8921L45.3164 132.993L119.159 151.556Z" fill="#F9D00B"/>
<path d="M141.472 227.928L164.346 176.96L381.963 38.8921L119.159 151.556L141.472 227.928Z" fill="white"/>
<path d="M164.346 176.96L239.543 222.72L381.963 38.8921L164.346 176.96Z" fill="#F9D00B"/>
</g>
<path d="M381.963 38.8921L45.3164 132.993L119.159 151.556L141.472 227.928L191.402 193.424L239.543 222.72L381.963 38.8921Z" stroke="#231F20" stroke-width="4.85216" stroke-miterlimit="10"/>
<path d="M191.401 193.424L163.091 179.757" stroke="#231F20" stroke-width="4.85216" stroke-miterlimit="10"/>
</svg>
