<?xml version="1.0" standalone="no"?>
<!DOCTYPE svg PUBLIC "-//W3C//DTD SVG 20010904//EN"
 "http://www.w3.org/TR/2001/REC-SVG-20010904/DTD/svg10.dtd">
<svg version="1.0" xmlns="http://www.w3.org/2000/svg"
 width="500.000000pt" height="500.000000pt" viewBox="0 0 500.000000 500.000000"
 preserveAspectRatio="xMidYMid meet">
<metadata>
Created by potrace 1.11, written by Peter Selinger 2001-2013
</metadata>
<g transform="translate(0.000000,500.000000) scale(0.100000,-0.100000)"
fill="#000000" stroke="none">
<path d="M1916 3721 c-20 -4 -39 -21 -63 -55 -18 -26 -33 -54 -33 -62 0 -20
-16 -18 -153 17 -189 48 -178 49 -223 -12 -24 -34 -34 -54 -26 -57 18 -6 15
-39 -4 -46 -11 -4 -22 1 -30 13 -18 25 -185 95 -194 81 -4 -6 -13 -8 -21 -6
-14 5 -62 16 -88 19 -19 3 -40 -34 -23 -40 6 -3 12 -9 12 -14 0 -6 -8 -6 -19
1 -35 18 -44 13 -37 -26 6 -31 4 -36 -13 -41 -12 -3 -21 -8 -21 -11 0 -3 16
-24 36 -48 25 -31 30 -42 17 -38 -16 5 -16 4 2 -13 11 -10 26 -26 33 -35 12
-14 10 -16 -10 -11 -23 5 -23 5 -3 -10 11 -9 27 -17 36 -17 8 0 24 -6 35 -14
17 -13 14 -14 -36 -12 -30 2 -62 7 -71 10 -9 4 -23 -1 -34 -14 -18 -20 -20
-20 -26 -3 -7 17 -8 17 -8 0 -1 -10 -8 -31 -16 -47 -14 -28 -14 -30 29 -76 60
-64 75 -92 56 -105 -13 -8 -13 -10 0 -19 8 -5 20 -10 26 -10 6 0 17 -7 24 -15
10 -12 10 -15 -4 -15 -33 0 -14 -19 36 -36 50 -16 137 -55 168 -74 8 -5 53
-32 99 -60 46 -27 80 -50 75 -50 -31 0 -422 179 -460 211 -8 6 -11 16 -7 22 3
5 1 7 -5 3 -6 -3 -22 -58 -37 -121 -15 -63 -33 -119 -40 -125 -11 -9 -10 -17
6 -44 l19 -33 -27 -13 c-20 -9 -24 -14 -13 -18 32 -11 40 -42 11 -42 -33 0
-33 -18 -2 -46 17 -15 28 -31 25 -36 -4 -6 -11 -5 -17 1 -14 14 -30 15 -22 1
3 -5 -7 -9 -22 -9 -15 1 -57 -2 -92 -5 -54 -6 -63 -5 -58 8 10 27 -30 14 -47
-15 -13 -23 -14 -30 -3 -41 16 -16 31 -49 28 -65 -1 -6 3 -14 8 -17 6 -4 6
-18 -1 -37 -8 -22 -7 -34 1 -42 17 -17 13 -26 -8 -20 -11 3 -17 11 -15 18 9
21 -30 7 -45 -16 -9 -16 -9 -24 0 -35 6 -8 8 -14 5 -14 -4 0 -2 -9 3 -19 8
-15 7 -20 -5 -25 -14 -5 -13 -9 3 -33 23 -34 71 -149 76 -182 2 -13 19 -37 38
-53 19 -16 52 -46 74 -67 78 -71 195 -151 195 -132 0 5 -9 20 -20 34 -11 14
-20 28 -20 30 0 21 306 -176 465 -299 39 -29 93 -65 120 -79 220 -110 328
-175 433 -257 102 -80 279 -182 285 -165 3 8 28 -1 73 -24 79 -42 120 -57 110
-40 -12 18 3 13 47 -18 65 -44 88 -54 85 -39 -5 21 74 14 124 -10 29 -15 44
-18 49 -10 4 6 20 8 43 4 30 -6 35 -4 30 9 -8 19 -5 19 37 -2 51 -26 139 -21
234 11 92 32 117 31 232 -15 106 -42 163 -44 233 -9 67 34 89 57 93 98 2 17 9
38 16 46 11 13 10 22 -4 52 -17 36 -14 84 6 84 6 0 7 5 4 10 -4 6 -13 7 -21 2
-12 -6 -29 5 -65 40 -47 48 -48 50 -33 74 9 13 18 24 19 24 16 0 98 -44 128
-68 52 -42 137 -68 229 -71 72 -2 77 0 95 24 10 14 35 48 55 75 20 26 34 50
32 53 -3 3 1 18 9 34 8 15 17 43 20 61 8 39 0 44 -208 150 -131 66 -241 137
-256 165 -5 9 11 12 61 14 79 2 154 30 195 73 24 25 26 30 12 36 -13 5 -14 10
-6 25 7 15 6 19 -6 19 -19 0 -19 24 0 40 8 7 15 18 15 24 0 6 -7 3 -14 -7 -12
-15 -15 -15 -26 -2 -7 8 -10 26 -8 40 3 14 0 29 -6 33 -6 4 -17 19 -23 33 -6
15 -36 47 -66 70 -31 24 -61 54 -68 67 -11 19 -9 25 12 48 20 22 24 35 22 85
-1 32 2 59 6 59 13 0 43 73 47 114 2 21 -1 44 -6 51 -8 9 -8 15 -1 20 7 4 6
15 -4 34 -8 16 -12 31 -9 34 3 3 -10 13 -29 22 -19 9 -43 24 -53 33 -32 28
-116 96 -140 112 -22 15 -186 130 -193 136 -2 2 6 15 16 31 11 15 18 34 15 41
-4 12 0 12 19 1 26 -15 54 -26 141 -57 l57 -21 36 42 35 42 -52 48 c-69 63
-162 119 -350 210 -145 71 -188 91 -353 167 -224 103 -483 205 -615 241 -25 7
-49 14 -55 15 -18 5 -59 14 -95 20 -19 4 -44 8 -55 11 -11 2 -56 6 -100 9 -44
3 -84 6 -90 8 -5 1 -23 0 -39 -3z m1307 -632 c24 -8 37 -18 37 -30 0 -31 -14
-28 -60 13 -25 21 -38 37 -30 34 8 -2 32 -10 53 -17z m-1587 -376 c-7 -7 -26
7 -26 19 0 6 6 6 15 -2 9 -7 13 -15 11 -17z m876 -26 c147 -68 248 -120 248
-128 0 -22 -26 -16 -87 19 -38 22 -107 58 -155 82 -49 23 -88 46 -88 51 0 13
1 13 82 -24z m-802 -2 c17 -9 30 -17 30 -20 0 -6 -63 16 -74 26 -16 15 12 10
44 -6z m-412 -65 c102 -17 208 -56 385 -142 54 -27 104 -48 111 -48 16 0 120
-35 164 -56 34 -16 35 -34 1 -34 -10 0 -19 -4 -19 -10 0 -6 -9 -5 -24 1 -16 7
-22 17 -19 26 5 12 0 14 -23 9 -23 -5 -51 4 -128 43 -54 28 -103 48 -107 45
-4 -2 -27 4 -51 14 -24 11 -74 33 -113 50 -38 17 -83 33 -100 36 -16 2 -30 5
-30 6 0 1 -10 3 -22 6 -12 2 -48 17 -80 34 -65 33 -54 37 55 20z m682 -46 c48
-25 64 -44 38 -44 -21 0 -106 44 -112 58 -8 19 20 14 74 -14z m120 -54 c0 -5
-7 -7 -15 -4 -8 4 -15 8 -15 10 0 2 7 4 15 4 8 0 15 -4 15 -10z m-43 -96 c-3
-3 -12 -4 -19 -1 -8 3 -5 6 6 6 11 1 17 -2 13 -5z m965 -116 c33 -18 56 -34
50 -36 -11 -3 -75 27 -107 52 -33 25 -7 18 57 -16z m-561 -60 c72 -40 92 -62
72 -81 -7 -8 -123 54 -123 65 0 5 -10 8 -23 8 -32 0 -117 62 -103 76 13 13 57
-4 177 -68z m-948 40 c27 -10 63 -18 80 -17 35 2 120 -30 100 -38 -7 -3 -13
-9 -13 -14 0 -6 8 -6 19 1 14 7 27 7 45 -2 31 -13 31 -16 8 -46 l-18 -24 -90
32 c-49 17 -96 33 -105 35 -27 6 -95 43 -108 58 -11 15 137 -35 188 -62 12 -7
21 -10 21 -7 0 9 -107 65 -167 86 -35 13 -63 24 -63 27 0 6 51 -8 103 -29z
m728 -65 c16 -10 29 -21 29 -25 0 -4 -16 2 -35 13 -33 20 -42 29 -29 29 3 0
19 -8 35 -17z m-15 -31 c-4 -3 -14 2 -24 12 -16 18 -16 18 6 6 13 -6 21 -14
18 -18z m-522 -53 c6 -5 -1 -19 -18 -34 -26 -24 -29 -24 -62 -10 -19 8 -44 22
-57 31 -21 16 -21 16 18 10 l40 -6 -36 17 c-42 21 -69 42 -69 54 0 9 169 -47
184 -62z m906 41 c0 -5 -5 -10 -11 -10 -5 0 -7 5 -4 10 3 6 8 10 11 10 2 0 4
-4 4 -10z m-316 -15 c11 -8 15 -15 10 -15 -6 0 -19 7 -30 15 -10 8 -14 14 -9
14 6 0 19 -6 29 -14z m472 -89 c3 -8 32 -33 65 -56 32 -23 59 -43 59 -46 0 -7
-70 24 -117 52 -47 27 -46 25 -37 48 8 20 23 21 30 2z m195 -143 c13 -17 13
-17 -6 -3 -11 8 -22 16 -24 17 -2 2 0 3 6 3 6 0 17 -8 24 -17z m70 -40 c13
-14 20 -24 14 -22 -44 20 -65 34 -65 41 0 17 27 7 51 -19z m-577 -29 c7 -17
-6 -18 -22 -2 -7 7 -12 15 -12 20 0 12 28 -2 34 -18z m-81 -61 c-6 -16 -11
-16 -43 2 -25 14 -25 14 12 13 26 -1 35 -5 31 -15z m-1187 -54 c26 -11 70 -36
97 -55 34 -24 52 -32 60 -25 9 6 51 -10 138 -53 69 -34 136 -70 150 -80 l24
-18 -30 6 c-16 4 -39 9 -50 12 -17 5 -16 2 5 -16 14 -11 46 -33 72 -48 62 -35
62 -47 1 -23 -84 34 -178 89 -169 99 3 2 17 -3 30 -12 14 -9 28 -16 32 -16 12
0 -40 37 -83 59 -44 22 -57 19 -25 -6 15 -13 15 -13 -5 -3 -12 5 -28 18 -35
29 -7 10 -43 32 -81 49 -85 40 -209 122 -183 122 2 0 26 -9 52 -21z m44 11 c8
-5 12 -11 9 -14 -3 -3 -14 1 -25 9 -21 16 -8 20 16 5z m385 -94 c30 -14 55
-30 55 -37 0 -8 -4 -8 -15 1 -8 7 -15 8 -15 3 0 -6 21 -18 48 -28 63 -24 106
-55 94 -67 -10 -10 -63 12 -94 39 -10 9 -31 17 -48 19 -16 2 -53 17 -82 33
-40 23 -48 32 -35 37 10 3 32 -3 52 -15 44 -26 46 -10 3 18 -44 28 -31 26 37
-3z m226 -218 c42 -23 50 -38 21 -38 -10 0 -31 14 -47 30 -34 36 -27 38 26 8z"/>
<path d="M1610 2476 c0 -2 7 -7 16 -10 8 -3 12 -2 9 4 -6 10 -25 14 -25 6z"/>
<path d="M2295 2300 c3 -5 11 -10 16 -10 6 0 7 5 4 10 -3 6 -11 10 -16 10 -6
0 -7 -4 -4 -10z"/>
<path d="M799 1776 c14 -17 68 -48 116 -66 39 -15 29 -4 -17 20 -24 12 -59 31
-78 43 -29 18 -33 18 -21 3z"/>
<path d="M910 1766 c0 -11 30 -39 36 -34 2 3 -5 13 -16 23 -11 10 -20 15 -20
11z"/>
<path d="M950 1697 c0 -10 138 -87 156 -87 17 0 16 2 -6 19 -13 11 -28 17 -32
15 -5 -3 -33 9 -63 26 -30 17 -55 29 -55 27z"/>
<path d="M1140 1600 c0 -6 7 -13 15 -17 24 -9 27 1 5 15 -13 8 -20 8 -20 2z"/>
</g>
</svg>
